<svg width="61" height="60" viewBox="0 0 61 60" fill="none" xmlns="http://www.w3.org/2000/svg">
<mask id="mask0_307_600" style="mask-type:luminance" maskUnits="userSpaceOnUse" x="0" y="-1" width="61" height="62">
<path d="M60.5 -0.0012207H0.5V60.0014H60.5V-0.0012207Z" fill="white"/>
</mask>
<g mask="url(#mask0_307_600)">
<mask id="mask1_307_600" style="mask-type:luminance" maskUnits="userSpaceOnUse" x="0" y="-1" width="61" height="62">
<path d="M60.5 -0.0012207H0.5V60.0014H60.5V-0.0012207Z" fill="white"/>
</mask>
<g mask="url(#mask1_307_600)">
<path d="M57.684 17.3046C59.4278 15.4659 60.5 12.9826 60.5 10.2531C60.5 4.59859 55.9004 -0.0012207 50.2461 -0.0012207C47.518 -0.0012207 45.0348 1.06992 43.1949 2.81492C39.2082 0.948043 34.9414 -0.0012207 30.5 -0.0012207C26.0586 -0.0012207 21.7906 0.946871 17.8051 2.81492C15.9664 1.0711 13.4832 -0.0012207 10.7539 -0.0012207C5.09961 -0.0012207 0.5 4.59859 0.5 10.2531C0.5 12.9814 1.5711 15.4647 3.31602 17.3046C1.44922 21.2915 0.5 25.5585 0.5 30.0001C0.5 34.4417 1.44805 38.7087 3.31602 42.6956C1.57227 44.5343 0.5 47.0176 0.5 49.7471C0.5 55.4016 5.09961 60.0014 10.7539 60.0014C13.482 60.0014 15.9653 58.9303 17.8051 57.1853C21.7918 59.0522 26.0586 60.0014 30.5 60.0014C34.9414 60.0014 39.2082 59.0533 43.1949 57.1853C45.0336 58.9291 47.5168 60.0014 50.2461 60.0014C55.9004 60.0014 60.5 55.4016 60.5 49.7471C60.5 47.0176 59.4289 44.5355 57.684 42.6956C59.5508 38.7087 60.5 34.4417 60.5 30.0001C60.5 25.5585 59.552 21.2915 57.684 17.3046ZM50.2461 10.5461C49.1152 10.5461 48.1953 9.62616 48.1953 8.49525C48.1953 7.36434 49.1152 6.44438 50.2461 6.44438C51.377 6.44438 52.2969 7.36434 52.2969 8.49525C52.2969 9.62616 51.377 10.5461 50.2461 10.5461ZM49.0742 12.304H51.418C53.518 12.304 55.2266 14.0127 55.2266 16.1128V17.13C53.8262 18.1472 52.1059 18.7496 50.2461 18.7496C48.3863 18.7496 46.666 18.1472 45.2656 17.13V16.1128C45.2656 14.0127 46.9742 12.304 49.0742 12.304ZM50.2461 1.75667C54.9313 1.75667 58.7422 5.56777 58.7422 10.2531C58.7422 12.2185 58.0695 14.0279 56.9457 15.4682C56.6961 13.3189 55.2184 11.5387 53.2344 10.852C53.7477 10.2027 54.0547 9.38474 54.0547 8.49525C54.0547 6.39515 52.3461 4.68649 50.2461 4.68649C48.1461 4.68649 46.4375 6.39515 46.4375 8.49525C46.4375 9.38474 46.7445 10.2027 47.2578 10.852C45.2738 11.5387 43.7949 13.3189 43.5465 15.4682C42.4227 14.0267 41.75 12.2173 41.75 10.2531C41.75 5.56895 45.5609 1.75667 50.2461 1.75667ZM10.7539 1.75667C15.4391 1.75667 19.25 5.56777 19.25 10.2531C19.25 12.2185 18.5774 14.0279 17.4535 15.4682C17.2039 13.3189 15.7262 11.5387 13.7422 10.852C14.2555 10.2027 14.5625 9.38474 14.5625 8.49525C14.5625 6.39515 12.8539 4.68649 10.7539 4.68649C8.65391 4.68649 6.94531 6.39515 6.94531 8.49525C6.94531 9.38474 7.25234 10.2027 7.76562 10.852C5.78164 11.5387 4.30274 13.3189 4.05431 15.4682C2.93048 14.0267 2.25781 12.2173 2.25781 10.2531C2.25781 5.56895 6.06875 1.75667 10.7539 1.75667ZM10.7539 10.5461C9.62305 10.5461 8.70312 9.62616 8.70312 8.49525C8.70312 7.36434 9.62305 6.44438 10.7539 6.44438C11.8848 6.44438 12.8047 7.36434 12.8047 8.49525C12.8047 9.62616 11.8848 10.5461 10.7539 10.5461ZM9.58203 12.304H11.9258C14.0258 12.304 15.7344 14.0127 15.7344 16.1128V17.13C14.334 18.1472 12.6137 18.7496 10.7539 18.7496C8.89414 18.7496 7.17383 18.1472 5.77344 17.13V16.1128C5.77344 14.0127 7.48203 12.304 9.58203 12.304ZM2.25781 49.7471C2.25781 45.0617 6.06875 41.2506 10.7539 41.2506C15.4391 41.2506 19.25 45.0617 19.25 49.7471C19.25 51.7124 18.5774 53.5218 17.4535 54.9621C17.2039 52.8128 15.7262 51.0327 13.7422 50.3459C14.2555 49.6967 14.5625 48.8787 14.5625 47.9892C14.5625 45.8891 12.8539 44.1804 10.7539 44.1804C8.65391 44.1804 6.94531 45.8891 6.94531 47.9892C6.94531 48.8787 7.25234 49.6967 7.76562 50.3459C5.78164 51.0327 4.30274 52.8128 4.05431 54.9621C2.93048 53.5218 2.25781 51.7124 2.25781 49.7471ZM8.70312 47.9892C8.70312 46.8583 9.62305 45.9383 10.7539 45.9383C11.8848 45.9383 12.8047 46.8583 12.8047 47.9892C12.8047 49.1201 11.8848 50.04 10.7539 50.04C9.62305 50.04 8.70312 49.1201 8.70312 47.9892ZM5.77344 56.6239V55.6067C5.77344 53.5066 7.48203 51.7979 9.58203 51.7979H11.9258C14.0258 51.7979 15.7344 53.5066 15.7344 55.6067V56.6239C14.334 57.6412 12.6137 58.2435 10.7539 58.2435C8.89414 58.2435 7.17383 57.6412 5.77344 56.6239ZM19.0191 55.8083C20.2684 54.109 21.0078 52.0136 21.0078 49.7471C21.0078 44.0925 16.4082 39.4927 10.7539 39.4927C8.48867 39.4927 6.39219 40.2322 4.69297 41.4815C3.07813 37.8649 2.25781 34.0081 2.25781 30.0001C2.25781 25.9921 3.07813 22.1365 4.69297 18.5187C6.39219 19.768 8.4875 20.5075 10.7539 20.5075C16.4082 20.5075 21.0078 15.9077 21.0078 10.2531C21.0078 7.9878 20.2684 5.89123 19.0191 4.19194C22.6355 2.57702 26.4922 1.75667 30.5 1.75667C34.5078 1.75667 38.3633 2.57702 41.9809 4.19194C40.7317 5.89123 39.9922 7.98663 39.9922 10.2531C39.9922 15.9077 44.5918 20.5075 50.2461 20.5075C52.5113 20.5075 54.6078 19.768 56.3071 18.5187C57.9219 22.1353 58.7422 25.9921 58.7422 30.0001C58.7422 34.0081 57.9219 37.8637 56.3071 41.4815C54.6078 40.2322 52.5125 39.4927 50.2461 39.4927C44.5918 39.4927 39.9922 44.0925 39.9922 49.7471C39.9922 52.0124 40.7317 54.109 41.9809 55.8083C38.3645 57.4232 34.5078 58.2435 30.5 58.2435C26.4922 58.2435 22.6367 57.4232 19.0191 55.8083ZM45.2656 56.6239V55.6067C45.2656 53.5066 46.9742 51.7979 49.0742 51.7979H51.418C53.518 51.7979 55.2266 53.5066 55.2266 55.6067V56.6239C53.8262 57.6412 52.1059 58.2435 50.2461 58.2435C48.3863 58.2435 46.666 57.6412 45.2656 56.6239ZM50.2461 50.04C49.1152 50.04 48.1953 49.1201 48.1953 47.9892C48.1953 46.8583 49.1152 45.9383 50.2461 45.9383C51.377 45.9383 52.2969 46.8583 52.2969 47.9892C52.2969 49.1201 51.377 50.04 50.2461 50.04ZM56.9457 54.9621C56.6961 52.8128 55.2184 51.0327 53.2344 50.3459C53.7477 49.6967 54.0547 48.8787 54.0547 47.9892C54.0547 45.8891 52.3461 44.1804 50.2461 44.1804C48.1461 44.1804 46.4375 45.8891 46.4375 47.9892C46.4375 48.8787 46.7445 49.6967 47.2578 50.3459C45.2738 51.0327 43.7949 52.8128 43.5465 54.9621C42.4227 53.5218 41.75 51.7112 41.75 49.7471C41.75 45.0617 45.5609 41.2506 50.2461 41.2506C54.9313 41.2506 58.7422 45.0617 58.7422 49.7471C58.7422 51.7124 58.0695 53.5218 56.9457 54.9621Z" fill="#1B1117"/>
</g>
<mask id="mask2_307_600" style="mask-type:luminance" maskUnits="userSpaceOnUse" x="0" y="-1" width="61" height="62">
<path d="M60.5 -0.0012207H0.5V60.0014H60.5V-0.0012207Z" fill="white"/>
</mask>
<g mask="url(#mask2_307_600)">
<path d="M37.5312 37.3247H23.4688C22.9836 37.3247 22.5898 37.7185 22.5898 38.2037C22.5898 38.6888 22.9836 39.0826 23.4688 39.0826H25.5195V41.7194C25.5195 42.2046 25.9133 42.5984 26.3984 42.5984H34.6016C35.0867 42.5984 35.4805 42.2046 35.4805 41.7194V39.0826H37.5312C38.0164 39.0826 38.4102 38.6888 38.4102 38.2037C38.4102 37.7185 38.0164 37.3247 37.5312 37.3247Z" fill="#22B0FC"/>
</g>
<mask id="mask3_307_600" style="mask-type:luminance" maskUnits="userSpaceOnUse" x="0" y="-1" width="61" height="62">
<path d="M60.5 -0.0012207H0.5V60.0014H60.5V-0.0012207Z" fill="white"/>
</mask>
<g mask="url(#mask3_307_600)">
<path d="M26.6914 46.4071C26.6914 46.8923 27.0852 47.286 27.5703 47.286H33.4297C33.9148 47.286 34.3086 46.8923 34.3086 46.4071V44.3562H26.6914V46.4071Z" fill="#22B0FC"/>
</g>
<mask id="mask4_307_600" style="mask-type:luminance" maskUnits="userSpaceOnUse" x="0" y="-1" width="61" height="62">
<path d="M60.5 -0.0012207H0.5V60.0014H60.5V-0.0012207Z" fill="white"/>
</mask>
<g mask="url(#mask4_307_600)">
<path d="M37.5557 17.8719C35.4944 15.9171 32.7908 14.9209 29.9455 15.0721C24.6381 15.3522 20.3795 19.7364 20.2482 25.0534C20.1885 27.4723 20.9877 29.8408 22.4971 31.7229C23.3877 32.8327 23.9795 34.1628 24.2221 35.5656H36.7904C37.0412 34.1429 37.6283 32.8127 38.5072 31.7158C39.9557 29.9075 40.7537 27.6328 40.7537 25.3112C40.7537 22.4705 39.6182 19.829 37.5557 17.8719ZM35.2225 23.3354L30.0252 28.5329C29.86 28.6981 29.6373 28.7907 29.4041 28.7907C29.1709 28.7907 28.9471 28.6981 28.783 28.5329L25.7772 25.5269C25.4338 25.1835 25.4338 24.6268 25.7772 24.2835C26.1205 23.9401 26.6772 23.9401 27.0205 24.2835L29.4041 26.6672L33.9803 22.0908C34.3237 21.7474 34.8803 21.7474 35.2236 22.0908C35.5658 22.4353 35.5658 22.992 35.2225 23.3354Z" fill="#22B0FC"/>
</g>
</g>
</svg>
