<svg width="61" height="60" viewBox="0 0 61 60" fill="none" xmlns="http://www.w3.org/2000/svg">
<mask id="mask0_307_534" style="mask-type:luminance" maskUnits="userSpaceOnUse" x="0" y="-1" width="61" height="62">
<path d="M60.5 -0.0012207H0.5V60.0014H60.5V-0.0012207Z" fill="white"/>
</mask>
<g mask="url(#mask0_307_534)">
<mask id="mask1_307_534" style="mask-type:luminance" maskUnits="userSpaceOnUse" x="0" y="-1" width="61" height="62">
<path d="M60.5 -0.0012207H0.5V60.0014H60.5V-0.0012207Z" fill="white"/>
</mask>
<g mask="url(#mask1_307_534)">
<path d="M50.5977 5.85841H46.7891V3.80754C46.7891 1.70745 45.0805 -0.0012207 42.9805 -0.0012207C40.8805 -0.0012207 39.1719 1.70745 39.1719 3.80754V5.85841H35.4606V3.80754C35.4606 1.70745 33.752 -0.0012207 31.652 -0.0012207C29.552 -0.0012207 27.8434 1.70745 27.8434 3.80754V5.85841H24.132V3.80754C24.132 1.70745 22.4235 -0.0012207 20.3235 -0.0012207C18.2235 -0.0012207 16.5149 1.70745 16.5149 3.80754V5.85841H12.8047V3.80754C12.8047 1.70745 11.0961 -0.0012207 8.99609 -0.0012207C6.89609 -0.0012207 5.1875 1.70745 5.1875 3.80754V5.85841H1.37891C0.89375 5.85841 0.5 6.25218 0.5 6.73736V50.0986C0.5 50.5838 0.89375 50.9776 1.37891 50.9776H29.907C30.3922 50.9776 30.7859 50.5838 30.7859 50.0986C30.7859 49.6135 30.3922 49.2197 29.907 49.2197H2.25781V14.6479H49.7188V29.4071C49.7188 29.8923 50.1125 30.2861 50.5977 30.2861C51.0828 30.2861 51.4766 29.8923 51.4766 29.4071V6.73736C51.4766 6.25218 51.0828 5.85841 50.5977 5.85841ZM40.9297 3.80754C40.9297 2.67663 41.8496 1.75667 42.9805 1.75667C44.1113 1.75667 45.0312 2.67663 45.0312 3.80754V5.85841H40.9297V3.80754ZM29.6012 3.80754C29.6012 2.67663 30.5211 1.75667 31.652 1.75667C32.7828 1.75667 33.7027 2.67663 33.7027 3.80754V5.85841H29.6012V3.80754ZM18.2738 3.80754C18.2738 2.67663 19.1937 1.75667 20.3246 1.75667C21.4555 1.75667 22.3754 2.67663 22.3754 3.80754V5.85841H18.2738V3.80754ZM6.94531 3.80754C6.94531 2.67663 7.86523 1.75667 8.99609 1.75667C10.127 1.75667 11.0469 2.67663 11.0469 3.80754V5.85841H6.94531V3.80754ZM49.7188 12.89H2.25781V7.6163H5.1875V8.49525C5.1875 9.94961 6.36992 11.1321 7.82422 11.1321H8.99609C9.48125 11.1321 9.875 10.7383 9.875 10.2531C9.875 9.76796 9.48125 9.37419 8.99609 9.37419H7.82422C7.33906 9.37419 6.94531 8.98042 6.94531 8.49525V7.6163H16.516V8.49525C16.516 9.94961 17.6984 11.1321 19.1527 11.1321H20.3246C20.8098 11.1321 21.2035 10.7383 21.2035 10.2531C21.2035 9.76796 20.8098 9.37419 20.3246 9.37419H19.1527C18.6676 9.37419 18.2738 8.98042 18.2738 8.49525V7.6163H27.8445V8.49525C27.8445 9.94961 29.0269 11.1321 30.4812 11.1321H31.6531C32.1383 11.1321 32.532 10.7383 32.532 10.2531C32.532 9.76796 32.1383 9.37419 31.6531 9.37419H30.4812C29.9961 9.37419 29.6023 8.98042 29.6023 8.49525V7.6163H39.1719V8.49525C39.1719 9.94961 40.3543 11.1321 41.8086 11.1321H42.9805C43.4656 11.1321 43.8594 10.7383 43.8594 10.2531C43.8594 9.76796 43.4656 9.37419 42.9805 9.37419H41.8086C41.3234 9.37419 40.9297 8.98042 40.9297 8.49525V7.6163H49.7188V12.89Z" fill="#1B1117"/>
</g>
<mask id="mask2_307_534" style="mask-type:luminance" maskUnits="userSpaceOnUse" x="0" y="-1" width="61" height="62">
<path d="M60.5 -0.0012207H0.5V60.0014H60.5V-0.0012207Z" fill="white"/>
</mask>
<g mask="url(#mask2_307_534)">
<path d="M12.8047 18.4566C12.8047 17.9714 12.4109 17.5776 11.9258 17.5776H6.06641C5.58125 17.5776 5.1875 17.9714 5.1875 18.4566V24.3162C5.1875 24.8014 5.58125 25.1952 6.06641 25.1952H11.9258C12.4109 25.1952 12.8047 24.8014 12.8047 24.3162V18.4566ZM11.0469 23.4373H6.94531V19.3355H11.0469V23.4373Z" fill="#1B1117"/>
</g>
<mask id="mask3_307_534" style="mask-type:luminance" maskUnits="userSpaceOnUse" x="0" y="-1" width="61" height="62">
<path d="M60.5 -0.0012207H0.5V60.0014H60.5V-0.0012207Z" fill="white"/>
</mask>
<g mask="url(#mask3_307_534)">
<path d="M24.1333 18.4566C24.1333 17.9714 23.7396 17.5776 23.2544 17.5776H17.395C16.9099 17.5776 16.5161 17.9714 16.5161 18.4566V24.3162C16.5161 24.8014 16.9099 25.1952 17.395 25.1952H23.2544C23.7396 25.1952 24.1333 24.8014 24.1333 24.3162V18.4566ZM22.3755 23.4373H18.2739V19.3355H22.3755V23.4373Z" fill="#1B1117"/>
</g>
<mask id="mask4_307_534" style="mask-type:luminance" maskUnits="userSpaceOnUse" x="0" y="-1" width="61" height="62">
<path d="M60.5 -0.0012207H0.5V60.0014H60.5V-0.0012207Z" fill="white"/>
</mask>
<g mask="url(#mask4_307_534)">
<path d="M34.5815 17.5776H28.7222C28.237 17.5776 27.8433 17.9714 27.8433 18.4566V24.3162C27.8433 24.8014 28.237 25.1952 28.7222 25.1952H34.5815C35.0667 25.1952 35.4604 24.8014 35.4604 24.3162V18.4566C35.4604 17.9714 35.0679 17.5776 34.5815 17.5776ZM33.7026 23.4373H29.6011V19.3355H33.7026V23.4373Z" fill="#1B1117"/>
</g>
<mask id="mask5_307_534" style="mask-type:luminance" maskUnits="userSpaceOnUse" x="0" y="-1" width="61" height="62">
<path d="M60.5 -0.0012207H0.5V60.0014H60.5V-0.0012207Z" fill="white"/>
</mask>
<g mask="url(#mask5_307_534)">
<path d="M45.9102 17.5776H40.0508C39.5656 17.5776 39.1719 17.9714 39.1719 18.4566V24.3162C39.1719 24.8014 39.5656 25.1952 40.0508 25.1952H45.9102C46.3953 25.1952 46.7891 24.8014 46.7891 24.3162V18.4566C46.7891 17.9714 46.3953 17.5776 45.9102 17.5776ZM45.0312 23.4373H40.9297V19.3355H45.0312V23.4373Z" fill="#1B1117"/>
</g>
<mask id="mask6_307_534" style="mask-type:luminance" maskUnits="userSpaceOnUse" x="0" y="-1" width="61" height="62">
<path d="M60.5 -0.0012207H0.5V60.0014H60.5V-0.0012207Z" fill="white"/>
</mask>
<g mask="url(#mask6_307_534)">
<path d="M12.8047 29.0039C12.8047 28.5188 12.4109 28.125 11.9258 28.125H6.06641C5.58125 28.125 5.1875 28.5188 5.1875 29.0039V34.8636C5.1875 35.3488 5.58125 35.7425 6.06641 35.7425H11.9258C12.4109 35.7425 12.8047 35.3488 12.8047 34.8636V29.0039ZM11.0469 33.9846H6.94531V29.8829H11.0469V33.9846Z" fill="#1B1117"/>
</g>
<mask id="mask7_307_534" style="mask-type:luminance" maskUnits="userSpaceOnUse" x="0" y="-1" width="61" height="62">
<path d="M60.5 -0.0012207H0.5V60.0014H60.5V-0.0012207Z" fill="white"/>
</mask>
<g mask="url(#mask7_307_534)">
<path d="M24.1333 29.0039C24.1333 28.5188 23.7396 28.125 23.2544 28.125H17.395C16.9099 28.125 16.5161 28.5188 16.5161 29.0039V34.8636C16.5161 35.3488 16.9099 35.7425 17.395 35.7425H23.2544C23.7396 35.7425 24.1333 35.3488 24.1333 34.8636V29.0039ZM22.3755 33.9846H18.2739V29.8829H22.3755V33.9846Z" fill="#1B1117"/>
</g>
<mask id="mask8_307_534" style="mask-type:luminance" maskUnits="userSpaceOnUse" x="0" y="-1" width="61" height="62">
<path d="M60.5 -0.0012207H0.5V60.0014H60.5V-0.0012207Z" fill="white"/>
</mask>
<g mask="url(#mask8_307_534)">
<path d="M45.9102 28.125H40.0508C39.5656 28.125 39.1719 28.5188 39.1719 29.0039V30.1067C39.1719 30.5919 39.5656 30.9857 40.0508 30.9857C40.5359 30.9857 40.9297 30.5919 40.9297 30.1067V29.8829H45.9102C46.3953 29.8829 46.7891 29.4891 46.7891 29.0039C46.7891 28.5188 46.3953 28.125 45.9102 28.125Z" fill="#1B1117"/>
</g>
<mask id="mask9_307_534" style="mask-type:luminance" maskUnits="userSpaceOnUse" x="0" y="-1" width="61" height="62">
<path d="M60.5 -0.0012207H0.5V60.0014H60.5V-0.0012207Z" fill="white"/>
</mask>
<g mask="url(#mask9_307_534)">
<path d="M11.9258 38.6724H6.06641C5.58125 38.6724 5.1875 39.0661 5.1875 39.5513V45.4109C5.1875 45.8961 5.58125 46.2899 6.06641 46.2899H11.9258C12.4109 46.2899 12.8047 45.8961 12.8047 45.4109V39.5513C12.8047 39.0661 12.4109 38.6724 11.9258 38.6724ZM11.0469 44.532H6.94531V40.4303H11.0469V44.532Z" fill="#1B1117"/>
</g>
<mask id="mask10_307_534" style="mask-type:luminance" maskUnits="userSpaceOnUse" x="0" y="-1" width="61" height="62">
<path d="M60.5 -0.0012207H0.5V60.0014H60.5V-0.0012207Z" fill="white"/>
</mask>
<g mask="url(#mask10_307_534)">
<path d="M23.2544 38.6724H17.395C16.9099 38.6724 16.5161 39.0661 16.5161 39.5513V45.4109C16.5161 45.8961 16.9099 46.2899 17.395 46.2899H23.2544C23.7396 46.2899 24.1333 45.8961 24.1333 45.4109V39.5513C24.1333 39.0661 23.7396 38.6724 23.2544 38.6724ZM22.3755 44.532H18.2739V40.4303H22.3755V44.532Z" fill="#1B1117"/>
</g>
<mask id="mask11_307_534" style="mask-type:luminance" maskUnits="userSpaceOnUse" x="0" y="-1" width="61" height="62">
<path d="M60.5 -0.0012207H0.5V60.0014H60.5V-0.0012207Z" fill="white"/>
</mask>
<g mask="url(#mask11_307_534)">
<path d="M30.6069 38.6724H28.7236C28.2385 38.6724 27.8447 39.0661 27.8447 39.5513V45.4109C27.8447 45.8961 28.2385 46.2899 28.7236 46.2899H29.156C29.6412 46.2899 30.035 45.8961 30.035 45.4109C30.035 45.0887 29.8615 44.8062 29.6025 44.6539V40.4303H30.6069C31.092 40.4303 31.4858 40.0365 31.4858 39.5513C31.4858 39.0661 31.092 38.6724 30.6069 38.6724Z" fill="#1B1117"/>
</g>
<mask id="mask12_307_534" style="mask-type:luminance" maskUnits="userSpaceOnUse" x="0" y="-1" width="61" height="62">
<path d="M60.5 -0.0012207H0.5V60.0014H60.5V-0.0012207Z" fill="white"/>
</mask>
<g mask="url(#mask12_307_534)">
<path d="M34.5815 28.125H28.7222C28.237 28.125 27.8433 28.5188 27.8433 29.0039V34.8636C27.8433 35.3488 28.237 35.7425 28.7222 35.7425H31.9015C32.3866 35.7425 32.7804 35.3488 32.7804 34.8636C32.7804 34.3784 32.3866 33.9846 31.9015 33.9846H29.6011V29.8829H33.7026V32.0287C33.7026 32.5139 34.0964 32.9076 34.5815 32.9076C35.0667 32.9076 35.4604 32.5139 35.4604 32.0287V29.0039C35.4604 28.5188 35.0667 28.125 34.5815 28.125Z" fill="#1B1117"/>
</g>
<mask id="mask13_307_534" style="mask-type:luminance" maskUnits="userSpaceOnUse" x="0" y="-1" width="61" height="62">
<path d="M60.5 -0.0012207H0.5V60.0014H60.5V-0.0012207Z" fill="white"/>
</mask>
<g mask="url(#mask13_307_534)">
<path d="M46.1445 36.563C41.1371 36.563 37.0625 40.6378 37.0625 45.6454C37.0625 50.6531 41.1371 54.7279 46.1445 54.7279C51.152 54.7279 55.2266 50.6531 55.2266 45.6454C55.2266 40.6378 51.152 36.563 46.1445 36.563ZM50.2812 49.7823C50.1101 49.9534 49.8852 50.0401 49.6602 50.0401C49.4352 50.0401 49.2102 49.9546 49.0391 49.7823L45.5235 46.2665C45.3582 46.1013 45.2656 45.8786 45.2656 45.6454V42.1296C45.2656 41.6445 45.6594 41.2507 46.1445 41.2507C46.6297 41.2507 47.0234 41.6445 47.0234 42.1296V45.281L50.2812 48.5389C50.6246 48.8835 50.6246 49.4389 50.2812 49.7823Z" fill="#22B0FC"/>
</g>
<mask id="mask14_307_534" style="mask-type:luminance" maskUnits="userSpaceOnUse" x="0" y="-1" width="61" height="62">
<path d="M60.5 -0.0012207H0.5V60.0014H60.5V-0.0012207Z" fill="white"/>
</mask>
<g mask="url(#mask14_307_534)">
<path d="M46.1445 31.2893C38.2285 31.2893 31.7891 37.729 31.7891 45.6454C31.7891 53.5618 38.2285 60.0015 46.1445 60.0015C54.0605 60.0015 60.5 53.5618 60.5 45.6454C60.5 37.729 54.0605 31.2893 46.1445 31.2893ZM46.1445 56.4857C40.168 56.4857 35.3047 51.6234 35.3047 45.6454C35.3047 39.6674 40.168 34.8051 46.1445 34.8051C52.1211 34.8051 56.9844 39.6674 56.9844 45.6454C56.9844 51.6234 52.1211 56.4857 46.1445 56.4857Z" fill="#22B0FC"/>
</g>
</g>
</svg>
