<svg width="61" height="60" viewBox="0 0 61 60" fill="none" xmlns="http://www.w3.org/2000/svg">
<mask id="mask0_307_627" style="mask-type:luminance" maskUnits="userSpaceOnUse" x="0" y="0" width="61" height="61">
<path d="M60.5 0H0.5V60.0026H60.5V0Z" fill="white"/>
</mask>
<g mask="url(#mask0_307_627)">
<mask id="mask1_307_627" style="mask-type:luminance" maskUnits="userSpaceOnUse" x="0" y="0" width="61" height="61">
<path d="M60.5 0H0.5V60.0026H60.5V0Z" fill="white"/>
</mask>
<g mask="url(#mask1_307_627)">
<path d="M59.6211 40.666H1.37891C0.89375 40.666 0.5 41.0598 0.5 41.545V55.6081C0.5 56.0933 0.89375 56.487 1.37891 56.487H2.66797V59.1239C2.66797 59.609 3.06172 60.0028 3.54688 60.0028H57.4531C57.9383 60.0028 58.332 59.609 58.332 59.1239V56.487H59.6211C60.1063 56.487 60.5 56.0933 60.5 55.6081V41.545C60.5 41.0598 60.1063 40.666 59.6211 40.666ZM2.25781 46.5256H23.9375V50.6274H2.25781V46.5256ZM56.5742 58.2449H4.42578V56.487H56.5742V58.2449ZM58.7422 54.7291H2.25781V52.3853H24.8164C25.3016 52.3853 25.6953 51.9915 25.6953 51.5063V45.6467C25.6953 45.1615 25.3016 44.7678 24.8164 44.7678H2.25781V42.4239H58.7422V54.7291Z" fill="#1B1117"/>
</g>
<mask id="mask2_307_627" style="mask-type:luminance" maskUnits="userSpaceOnUse" x="0" y="0" width="61" height="61">
<path d="M60.5 0H0.5V60.0026H60.5V0Z" fill="white"/>
</mask>
<g mask="url(#mask2_307_627)">
<path d="M34.4258 51.7991C36.2023 51.7991 37.6484 50.353 37.6484 48.5763C37.6484 46.7997 36.2023 45.3535 34.4258 45.3535C32.6492 45.3535 31.2031 46.7997 31.2031 48.5763C31.2031 50.353 32.6492 51.7991 34.4258 51.7991ZM34.4258 47.1114C35.2332 47.1114 35.8906 47.7689 35.8906 48.5763C35.8906 49.3838 35.2332 50.0412 34.4258 50.0412C33.6184 50.0412 32.9609 49.3838 32.9609 48.5763C32.9609 47.7689 33.6184 47.1114 34.4258 47.1114Z" fill="#1B1117"/>
</g>
<mask id="mask3_307_627" style="mask-type:luminance" maskUnits="userSpaceOnUse" x="0" y="0" width="61" height="61">
<path d="M60.5 0H0.5V60.0026H60.5V0Z" fill="white"/>
</mask>
<g mask="url(#mask3_307_627)">
<path d="M43.2148 51.7991C44.9914 51.7991 46.4375 50.353 46.4375 48.5763C46.4375 46.7997 44.9914 45.3535 43.2148 45.3535C41.4383 45.3535 39.9922 46.7997 39.9922 48.5763C39.9922 50.353 41.4383 51.7991 43.2148 51.7991ZM43.2148 47.1114C44.0223 47.1114 44.6797 47.7689 44.6797 48.5763C44.6797 49.3838 44.0223 50.0412 43.2148 50.0412C42.4074 50.0412 41.75 49.3838 41.75 48.5763C41.75 47.7689 42.4074 47.1114 43.2148 47.1114Z" fill="#1B1117"/>
</g>
<mask id="mask4_307_627" style="mask-type:luminance" maskUnits="userSpaceOnUse" x="0" y="0" width="61" height="61">
<path d="M60.5 0H0.5V60.0026H60.5V0Z" fill="white"/>
</mask>
<g mask="url(#mask4_307_627)">
<path d="M52.0039 51.7991C53.7805 51.7991 55.2266 50.353 55.2266 48.5763C55.2266 46.7997 53.7805 45.3535 52.0039 45.3535C50.2273 45.3535 48.7812 46.7997 48.7812 48.5763C48.7812 50.353 50.2273 51.7991 52.0039 51.7991ZM52.0039 47.1114C52.8113 47.1114 53.4687 47.7689 53.4687 48.5763C53.4687 49.3838 52.8113 50.0412 52.0039 50.0412C51.1965 50.0412 50.5391 49.3838 50.5391 48.5763C50.5391 47.7689 51.1965 47.1114 52.0039 47.1114Z" fill="#1B1117"/>
</g>
<mask id="mask5_307_627" style="mask-type:luminance" maskUnits="userSpaceOnUse" x="0" y="0" width="61" height="61">
<path d="M60.5 0H0.5V60.0026H60.5V0Z" fill="white"/>
</mask>
<g mask="url(#mask5_307_627)">
<path d="M30.5 8.61377C24.5223 8.61377 19.6602 13.4761 19.6602 19.4541C19.6602 25.4321 24.5223 30.2944 30.5 30.2944C36.4777 30.2944 41.3398 25.4321 41.3398 19.4541C41.3398 13.4761 36.4766 8.61377 30.5 8.61377ZM30.8293 24.7278H30.1695C29.6844 24.7278 29.2906 24.334 29.2906 23.8488C29.2906 23.3636 29.6844 22.9699 30.1695 22.9699H30.8293C31.3145 22.9699 31.7082 23.3636 31.7082 23.8488C31.7082 24.334 31.3145 24.7278 30.8293 24.7278ZM33.6816 21.5249C33.5199 21.6526 33.3277 21.7147 33.1367 21.7147C32.8777 21.7147 32.6199 21.5999 32.4465 21.3807C31.9121 20.7057 31.2207 20.333 30.4988 20.333C29.777 20.333 29.0855 20.7045 28.5512 21.3807C28.25 21.7616 27.6969 21.8261 27.3172 21.5249C26.9363 21.2237 26.8719 20.6706 27.173 20.2908C28.0473 19.1845 29.2285 18.5763 30.4988 18.5763C31.7691 18.5763 32.9504 19.1857 33.8246 20.2908C34.127 20.6706 34.0625 21.2237 33.6816 21.5249ZM36.3184 18.5107C36.1566 18.6384 35.9645 18.7005 35.7734 18.7005C35.5145 18.7005 35.2566 18.5857 35.0832 18.3665C33.8457 16.8008 32.218 15.9383 30.5 15.9383C28.782 15.9383 27.1543 16.8008 25.9156 18.3665C25.6145 18.7474 25.0613 18.8119 24.6816 18.5107C24.3008 18.2095 24.2363 17.6564 24.5375 17.2767C26.116 15.2797 28.2336 14.1804 30.5 14.1804C32.7664 14.1804 34.884 15.2797 36.4625 17.2767C36.7637 17.6575 36.6992 18.2107 36.3184 18.5107Z" fill="#22B0FC"/>
</g>
<mask id="mask6_307_627" style="mask-type:luminance" maskUnits="userSpaceOnUse" x="0" y="0" width="61" height="61">
<path d="M60.5 0H0.5V60.0026H60.5V0Z" fill="white"/>
</mask>
<g mask="url(#mask6_307_627)">
<path d="M56.1055 35.3921H44.3867C43.9016 35.3921 43.5078 35.7859 43.5078 36.271V38.9079H56.9844V36.271C56.9844 35.7859 56.5906 35.3921 56.1055 35.3921Z" fill="#22B0FC"/>
</g>
<mask id="mask7_307_627" style="mask-type:luminance" maskUnits="userSpaceOnUse" x="0" y="0" width="61" height="61">
<path d="M60.5 0H0.5V60.0026H60.5V0Z" fill="white"/>
</mask>
<g mask="url(#mask7_307_627)">
<path d="M52.2969 2.05087C52.2969 0.919963 51.377 0 50.2461 0C49.1152 0 48.1953 0.919963 48.1953 2.05087V33.6343H52.2969V2.05087Z" fill="#22B0FC"/>
</g>
<mask id="mask8_307_627" style="mask-type:luminance" maskUnits="userSpaceOnUse" x="0" y="0" width="61" height="61">
<path d="M60.5 0H0.5V60.0026H60.5V0Z" fill="white"/>
</mask>
<g mask="url(#mask8_307_627)">
<path d="M16.6133 35.3921H4.89453C4.40938 35.3921 4.01562 35.7859 4.01562 36.271V38.9079H17.4922V36.271C17.4922 35.7859 17.0984 35.3921 16.6133 35.3921Z" fill="#22B0FC"/>
</g>
<mask id="mask9_307_627" style="mask-type:luminance" maskUnits="userSpaceOnUse" x="0" y="0" width="61" height="61">
<path d="M60.5 0H0.5V60.0026H60.5V0Z" fill="white"/>
</mask>
<g mask="url(#mask9_307_627)">
<path d="M12.8047 2.05087C12.8047 0.919963 11.8848 0 10.7539 0C9.62305 0 8.70312 0.919963 8.70312 2.05087V33.6343H12.8047V2.05087Z" fill="#22B0FC"/>
</g>
</g>
</svg>
