<svg width="61" height="60" viewBox="0 0 61 60" fill="none" xmlns="http://www.w3.org/2000/svg">
<mask id="mask0_307_674" style="mask-type:luminance" maskUnits="userSpaceOnUse" x="0" y="0" width="61" height="61">
<path d="M60.5 0H0.5V60.0026H60.5V0Z" fill="white"/>
</mask>
<g mask="url(#mask0_307_674)">
<mask id="mask1_307_674" style="mask-type:luminance" maskUnits="userSpaceOnUse" x="0" y="0" width="61" height="61">
<path d="M60.5 0H0.5V60.0026H60.5V0Z" fill="white"/>
</mask>
<g mask="url(#mask1_307_674)">
<path d="M52.4387 13.5251C51.8281 13.1735 51.118 13.0797 50.4383 13.2614L31.1949 18.4179C30.5141 18.6007 29.9457 19.0366 29.5942 19.6461C29.2414 20.2555 29.1489 20.9668 29.3305 21.6465C29.5133 22.3274 29.9492 22.8958 30.5586 23.2474C30.9653 23.4818 31.4153 23.6025 31.8723 23.6013C32.1008 23.6013 32.3317 23.5708 32.559 23.5099L51.8024 18.3534C53.2063 17.9772 54.043 16.5287 53.6668 15.1236C53.4852 14.445 53.0492 13.8767 52.4387 13.5251ZM51.3477 16.6576L32.1043 21.8141C31.877 21.8751 31.6403 21.8434 31.4375 21.7262C31.2348 21.609 31.0883 21.4192 31.0285 21.193C30.9032 20.7254 31.1821 20.2426 31.6496 20.116L50.893 14.9595C50.9692 14.9396 51.0453 14.929 51.1215 14.929C51.2739 14.929 51.4239 14.9689 51.5598 15.0474C51.7625 15.1646 51.9078 15.3545 51.9688 15.5806C52.0953 16.0494 51.8164 16.5322 51.3477 16.6576Z" fill="#1B1117"/>
</g>
<mask id="mask2_307_674" style="mask-type:luminance" maskUnits="userSpaceOnUse" x="0" y="0" width="61" height="61">
<path d="M60.5 0H0.5V60.0026H60.5V0Z" fill="white"/>
</mask>
<g mask="url(#mask2_307_674)">
<path d="M23.2718 20.5415L22.1398 20.845C21.4589 21.0278 20.8906 21.4638 20.539 22.0732C20.1863 22.6826 20.0937 23.394 20.2753 24.0737C20.5906 25.2503 21.6593 26.0284 22.823 26.0284C23.048 26.0284 23.2765 25.9992 23.505 25.9382L24.637 25.6347C26.0409 25.2585 26.8777 23.81 26.5015 22.4049C26.1242 21.0009 24.6757 20.1641 23.2718 20.5415ZM24.1812 23.9366L23.0492 24.2401C22.5804 24.3643 22.0976 24.0866 21.9722 23.619C21.9113 23.3928 21.9429 23.1549 22.0601 22.9521C22.1773 22.7494 22.3671 22.6029 22.5933 22.5431L23.7253 22.2396C24.1929 22.1142 24.6757 22.3931 24.8011 22.8607C24.9288 23.3283 24.6499 23.8112 24.1812 23.9366Z" fill="#1B1117"/>
</g>
<mask id="mask3_307_674" style="mask-type:luminance" maskUnits="userSpaceOnUse" x="0" y="0" width="61" height="61">
<path d="M60.5 0H0.5V60.0026H60.5V0Z" fill="white"/>
</mask>
<g mask="url(#mask3_307_674)">
<path d="M60.4695 22.4039L58.3461 14.4805C57.7988 12.439 56.4899 10.7338 54.6606 9.67675C52.8313 8.62084 50.6996 8.33958 48.6582 8.88687L8.24844 19.7155C6.20703 20.2628 4.50195 21.5718 3.44492 23.4012C2.38789 25.2306 2.10781 27.3623 2.65508 29.4038L3.91485 34.1044C1.87813 35.2646 0.5 37.4549 0.5 39.9628C0.5 43.679 3.52227 46.7014 7.23828 46.7014C10.9543 46.7014 13.9766 43.679 13.9766 39.9628C13.9766 38.5261 13.523 37.1948 12.7543 36.1002L17.6949 34.7759L19.3871 37.3389C19.5524 37.5897 19.8301 37.7338 20.1207 37.7338C20.1969 37.7338 20.273 37.7245 20.348 37.7034L36.9875 33.2442C37.3531 33.1469 37.6145 32.8258 37.6379 32.4473L37.8219 29.3815L41.2848 28.4534L44.1043 30.9308C44.2672 31.0738 44.4734 31.15 44.6844 31.15C44.7606 31.15 44.8367 31.1406 44.9117 31.1195L55.0988 28.3901C56.191 28.0971 56.8414 26.9709 56.5484 25.8786L56.1699 24.4653L59.8484 23.4797C60.3172 23.3555 60.5949 22.8738 60.4695 22.4039ZM7.23828 44.9435C4.49141 44.9435 2.25781 42.7087 2.25781 39.9628C2.25781 37.2158 4.49141 34.9822 7.23828 34.9822C9.98398 34.9822 12.2188 37.2158 12.2188 39.9628C12.2188 42.7098 9.98516 44.9435 7.23828 44.9435ZM35.9211 31.7113L20.5051 35.8423L19.4855 34.2978L36.0324 29.8644L35.9211 31.7113ZM54.8516 26.3345C54.8937 26.4904 54.8 26.6521 54.6441 26.6931L44.9105 29.3018L43.325 27.9084L54.4719 24.9212L54.8516 26.3345ZM11.375 34.6493C10.2324 33.7575 8.79688 33.2243 7.23828 33.2243C6.65703 33.2243 6.09336 33.2981 5.55547 33.4364L4.35313 28.9479C3.92774 27.3611 4.1457 25.7028 4.96719 24.279C5.78867 22.8551 7.11523 21.8378 8.70313 21.4124L49.1129 10.5838C50.6996 10.1584 52.3578 10.3764 53.7817 11.1979C55.2055 12.0194 56.2227 13.3461 56.6481 14.934L58.5441 22.0089L11.375 34.6493Z" fill="#1B1117"/>
</g>
<mask id="mask4_307_674" style="mask-type:luminance" maskUnits="userSpaceOnUse" x="0" y="0" width="61" height="61">
<path d="M60.5 0H0.5V60.0026H60.5V0Z" fill="white"/>
</mask>
<g mask="url(#mask4_307_674)">
<path d="M7.23828 36.7397C5.46172 36.7397 4.01562 38.1859 4.01562 39.9625C4.01562 41.7392 5.46172 43.1853 7.23828 43.1853C9.01484 43.1853 10.4609 41.7392 10.4609 39.9625C10.4609 38.1859 9.01484 36.7397 7.23828 36.7397ZM7.23828 41.4275C6.43086 41.4275 5.77344 40.77 5.77344 39.9625C5.77344 39.1551 6.43086 38.4976 7.23828 38.4976C8.0457 38.4976 8.70312 39.1551 8.70312 39.9625C8.70312 40.77 8.0457 41.4275 7.23828 41.4275Z" fill="#1B1117"/>
</g>
<mask id="mask5_307_674" style="mask-type:luminance" maskUnits="userSpaceOnUse" x="0" y="0" width="61" height="61">
<path d="M60.5 0H0.5V60.0026H60.5V0Z" fill="white"/>
</mask>
<g mask="url(#mask5_307_674)">
<path d="M53.7619 37.9119H42.0432C41.6647 37.9119 41.3295 38.1545 41.2088 38.5131L40.8232 39.6698H55.7893C55.6463 38.6783 54.7932 37.9119 53.7619 37.9119Z" fill="#22B0FC"/>
</g>
<mask id="mask6_307_674" style="mask-type:luminance" maskUnits="userSpaceOnUse" x="0" y="0" width="61" height="61">
<path d="M60.5 0H0.5V60.0026H60.5V0Z" fill="white"/>
</mask>
<g mask="url(#mask6_307_674)">
<path d="M59.328 41.4275H15.6054C15.3792 42.7236 14.8589 43.919 14.1147 44.9433H60.4999V42.5994C60.4999 41.9525 59.9749 41.4275 59.328 41.4275Z" fill="#22B0FC"/>
</g>
<mask id="mask7_307_674" style="mask-type:luminance" maskUnits="userSpaceOnUse" x="0" y="0" width="61" height="61">
<path d="M60.5 0H0.5V60.0026H60.5V0Z" fill="white"/>
</mask>
<g mask="url(#mask7_307_674)">
<path d="M7.23848 48.4591C6.94551 48.4591 6.65605 48.4438 6.37012 48.4145C6.49785 50.0751 7.88887 51.3889 9.58223 51.3889H57.2775C59.0576 51.3889 60.5002 49.9462 60.5002 48.1661V46.7012H12.4053C10.9721 47.8028 9.18145 48.4591 7.23848 48.4591Z" fill="#22B0FC"/>
</g>
</g>
</svg>
