<svg width="87" height="61" viewBox="0 0 87 61" fill="none" xmlns="http://www.w3.org/2000/svg">
<path d="M86.0237 42.8C86.0237 48 84.3571 52.3333 81.0237 55.8C77.6904 59.2667 73.3571 61 68.0237 61C61.4904 61 56.0904 58.6 51.8237 53.8C47.6904 48.8667 45.6237 43 45.6237 36.2C45.6237 26.3333 49.2904 17.8667 56.6237 10.8C63.9571 3.73333 72.8237 0.199994 83.2237 0.199994L83.6237 2.99999C77.2237 2.99999 71.3571 5.26666 66.0237 9.79999C60.6904 14.3333 58.0237 19.5333 58.0237 25.4C58.0237 26.7333 58.1571 27.7333 58.4237 28.4C58.8237 29.0667 59.3571 29.4 60.0237 29.4C60.9571 29.4 62.3571 29 64.2237 28.2C66.2237 27.2667 67.8904 26.8 69.2237 26.8C73.6237 26.8 77.4904 28.3333 80.8237 31.4C84.2904 34.3333 86.0237 38.1333 86.0237 42.8ZM40.4237 42.8C40.4237 48 38.7571 52.3333 35.4237 55.8C32.0904 59.2667 27.7571 61 22.4237 61C15.8904 61 10.4904 58.6 6.22373 53.8C2.0904 48.8667 0.0237306 43 0.0237306 36.2C0.0237306 26.3333 3.6904 17.8667 11.0237 10.8C18.3571 3.73333 27.2237 0.199994 37.6237 0.199994L38.0237 2.99999C31.6237 2.99999 25.7571 5.26666 20.4237 9.79999C15.0904 14.3333 12.4237 19.5333 12.4237 25.4C12.4237 26.7333 12.5571 27.7333 12.8237 28.4C13.2237 29.0667 13.7571 29.4 14.4237 29.4C15.3571 29.4 16.7571 29 18.6237 28.2C20.6237 27.2667 22.2904 26.8 23.6237 26.8C28.0237 26.8 31.8904 28.3333 35.2237 31.4C38.6904 34.3333 40.4237 38.1333 40.4237 42.8Z" fill="#22B0FC" fill-opacity="0.1"/>
</svg>
