<svg width="131" height="43" viewBox="0 0 131 43" fill="none" xmlns="http://www.w3.org/2000/svg">
<path d="M93.7637 39.1883C94.5627 39.1883 95.0354 38.5829 95.0354 37.6365C95.0354 36.6554 94.528 36.0848 93.7805 36.0848C93.3531 36.0848 93.0562 36.2743 92.8341 36.5754H92.8236V35.0247H92.3604V39.1019H92.8236V38.7145H92.8341C93.0741 39.0451 93.3647 39.1883 93.7637 39.1883ZM93.73 38.7998C93.1025 38.7998 92.7941 38.304 92.7941 37.6418C92.7941 37.0038 93.091 36.4785 93.7352 36.4785C94.2942 36.4785 94.5627 36.9807 94.5627 37.6418C94.5627 38.3092 94.2942 38.7998 93.73 38.7998ZM95.8176 40.0778C96.1766 40.0778 96.405 39.9515 96.644 39.3409L97.9052 36.1532H97.4146L96.7408 37.9902C96.6503 38.2355 96.5471 38.5661 96.5471 38.5661H96.5366C96.5366 38.5661 96.4271 38.2355 96.3366 37.9902L95.6407 36.1532H95.1385L96.2903 39.0167L96.1766 39.3072C96.0629 39.5925 95.9313 39.6673 95.7376 39.6673C95.6294 39.6727 95.5215 39.651 95.4238 39.6041H95.4007V40.0147C95.527 40.0663 95.6407 40.0778 95.8176 40.0778ZM99.0874 39.1019H99.8633V35.0247H99.0874V39.1019ZM101.76 39.1883C102.667 39.1883 103.289 38.5145 103.289 37.6418C103.289 36.7691 102.668 36.0964 101.76 36.0964C100.854 36.0964 100.232 36.7701 100.232 37.6418C100.232 38.5156 100.853 39.1883 101.76 39.1883ZM101.76 38.5945C101.281 38.5945 101.019 38.2124 101.019 37.6418C101.019 37.0722 101.281 36.6838 101.76 36.6838C102.234 36.6838 102.501 37.0722 102.501 37.6418C102.501 38.2124 102.234 38.5945 101.76 38.5945ZM104.939 40.0999C105.372 40.0999 105.748 39.9978 105.993 39.7694C106.21 39.5694 106.342 39.2904 106.342 38.8798V36.1764H105.594V36.4848H105.583C105.406 36.2395 105.139 36.0964 104.772 36.0964C104.032 36.0964 103.507 36.6554 103.507 37.5281C103.507 38.4124 104.146 38.9251 104.796 38.9251C105.167 38.9251 105.389 38.7777 105.56 38.5829H105.578V38.903C105.578 39.302 105.367 39.5136 104.927 39.5136C104.568 39.5136 104.403 39.3704 104.34 39.1872H103.57C103.649 39.7578 104.14 40.0999 104.939 40.0999ZM104.928 38.304C104.528 38.304 104.265 38.0134 104.265 37.5165C104.265 37.0259 104.528 36.7185 104.922 36.7185C105.389 36.7185 105.618 37.0828 105.618 37.5112C105.618 37.945 105.418 38.304 104.927 38.304H104.928ZM108.227 39.1883C109.134 39.1883 109.756 38.5145 109.756 37.6418C109.756 36.7691 109.134 36.0964 108.227 36.0964C107.32 36.0964 106.699 36.7701 106.699 37.6418C106.699 38.5156 107.32 39.1883 108.227 39.1883ZM108.227 38.5945C107.748 38.5945 107.485 38.2124 107.485 37.6418C107.485 37.0722 107.748 36.6838 108.227 36.6838C108.7 36.6838 108.968 37.0722 108.968 37.6418C108.968 38.2124 108.7 38.5945 108.227 38.5945ZM110.116 39.1019H110.892V36.1764H110.116V39.1019ZM110.116 35.7205H110.892V35.0247H110.116V35.7205ZM111.392 40.0599H112.168V38.7724H112.178C112.345 39.024 112.612 39.1893 113.023 39.1893C113.775 39.1893 114.289 38.5893 114.289 37.6428C114.289 36.7301 113.793 36.0974 113.017 36.0974C112.848 36.0947 112.681 36.1339 112.531 36.2116C112.38 36.2893 112.252 36.4031 112.156 36.5427H112.139V36.1774H111.392V40.062V40.0599ZM112.857 38.544C112.395 38.544 112.15 38.1955 112.15 37.6649C112.15 37.1407 112.345 36.7238 112.829 36.7238C113.308 36.7238 113.502 37.1112 113.502 37.6649C113.502 38.2187 113.251 38.544 112.857 38.544ZM115.837 39.1883C116.566 39.1883 117.068 38.8345 117.068 38.2471C117.068 37.5628 116.526 37.426 116.036 37.3228C115.62 37.2375 115.232 37.2144 115.232 36.9638C115.232 36.7533 115.431 36.6375 115.733 36.6375C116.065 36.6375 116.264 36.7533 116.299 37.0659H117C116.943 36.4785 116.516 36.0974 115.745 36.0974C115.078 36.0974 114.553 36.3985 114.553 37.0322C114.553 37.6702 115.066 37.8134 115.591 37.9165C115.99 37.9955 116.361 38.0239 116.361 38.304C116.361 38.5092 116.167 38.6408 115.825 38.6408C115.478 38.6408 115.238 38.4924 115.186 38.1555H114.468C114.513 38.7766 114.987 39.1883 115.837 39.1883ZM120.014 39.1019V36.1764H119.238V37.865C119.238 38.2524 119.015 38.5261 118.651 38.5261C118.32 38.5261 118.165 38.3376 118.165 37.9955V36.1764H117.396V38.1271C117.396 38.7661 117.761 39.182 118.411 39.182C118.821 39.182 119.05 39.0282 119.25 38.7609H119.266V39.1019H120.014ZM120.515 39.1019H121.291V37.4039C121.291 37.0154 121.501 36.7648 121.815 36.7648C122.1 36.7648 122.266 36.9364 122.266 37.267V39.103H123.042V37.4039C123.042 37.0154 123.242 36.7648 123.567 36.7648C123.852 36.7648 124.017 36.9364 124.017 37.267V39.103H124.793V37.1354C124.793 36.4964 124.445 36.0974 123.829 36.0974C123.458 36.0974 123.15 36.2911 122.951 36.6111H122.939C122.869 36.4558 122.755 36.3243 122.611 36.233C122.467 36.1417 122.299 36.0946 122.129 36.0974C121.958 36.0931 121.789 36.1348 121.639 36.2181C121.49 36.3015 121.366 36.4234 121.279 36.5711H121.262V36.1774H120.515V39.104V39.1019Z" fill="#E5708C"/>
<path d="M124.945 2.26227C124.945 1.01687 125.955 0.00623883 127.2 0.00623883H128.705C129.303 0.00623883 129.877 0.243927 130.3 0.667016C130.723 1.0901 130.961 1.66394 130.961 2.26227C130.961 2.86061 130.723 3.43444 130.3 3.85753C129.877 4.28062 129.303 4.51831 128.705 4.51831H127.2C126.904 4.51831 126.611 4.45995 126.337 4.34656C126.063 4.23317 125.815 4.06697 125.605 3.85747C125.396 3.64796 125.23 3.39925 125.117 3.12554C125.003 2.85183 124.945 2.55849 124.945 2.26227ZM61.79 15.0437C61.79 23.3477 55.0588 30.08 46.7536 30.08C38.4496 30.08 31.7173 23.3477 31.7173 15.0437C31.7173 6.73749 38.4496 0.00729158 46.7536 0.00729158C55.0588 0.00729158 61.79 6.73749 61.79 15.0437ZM28.7843 14.9689C29.616 14.9689 30.2961 15.6427 30.2129 16.4701C29.9287 19.3018 28.8467 21.9947 27.0927 24.2359C25.3386 26.477 22.9846 28.1743 20.3041 29.1306C17.6237 30.0869 14.7269 30.2628 11.9504 29.638C9.17391 29.0131 6.63176 27.6132 4.61938 25.6008C2.60701 23.5884 1.20706 21.0463 0.582219 18.2698C-0.0426174 15.4933 0.133324 12.5965 1.0896 9.91605C2.04587 7.2356 3.7432 4.88156 5.98433 3.12753C8.22546 1.3735 10.9184 0.291506 13.7501 0.00729158C14.5765 -0.0769281 15.2513 0.605251 15.2513 1.43481V13.4645C15.2513 14.2962 15.925 14.9689 16.7556 14.9689H28.7843ZM82.8418 33.0877C84.0382 33.0877 85.1855 33.563 86.0315 34.409C86.8775 35.2549 87.3528 36.4023 87.3528 37.5987C87.3528 38.7951 86.8775 39.9425 86.0315 40.7885C85.1855 41.6345 84.0382 42.1098 82.8418 42.1098H75.3241C74.1277 42.1098 72.9803 41.6345 72.1343 40.7885C71.2884 39.9425 70.8131 38.7951 70.8131 37.5987C70.8131 36.4023 71.2884 35.2549 72.1343 34.409C72.9803 33.563 74.1277 33.0877 75.3241 33.0877H82.8418ZM78.3307 30.08C86.6359 30.08 93.3682 23.3477 93.3682 15.0437C93.3717 12.4928 92.7235 9.98333 91.4848 7.75339L93.9693 5.26891C94.2555 4.9826 94.4824 4.64273 94.6373 4.26869C94.7921 3.89466 94.8717 3.4938 94.8716 3.08899C94.8715 2.68418 94.7917 2.28335 94.6367 1.90939C94.4817 1.53543 94.2545 1.19567 93.9682 0.909495C93.6819 0.62332 93.342 0.396341 92.968 0.241518C92.594 0.0866941 92.1931 0.00705776 91.7883 0.00715552C91.3835 0.00725328 90.9827 0.0870833 90.6087 0.242087C90.2347 0.397092 89.895 0.624235 89.6088 0.910547L87.4402 3.0792C84.8238 1.08099 81.6218 0.000941597 78.3297 0.00623883C70.0267 0.00729158 63.2954 6.73749 63.2954 15.0437C63.2954 23.3477 70.0267 30.08 78.3307 30.08ZM124.945 15.0437C124.945 23.3477 118.213 30.08 109.908 30.08C101.604 30.08 94.8715 23.3477 94.8715 15.0437C94.8715 6.73749 101.604 0.00729158 109.908 0.00729158C118.213 0.00729158 124.945 6.73855 124.945 15.0437Z" fill="url(#paint0_linear_307_757)"/>
<defs>
<linearGradient id="paint0_linear_307_757" x1="0.214909" y1="16.8439" x2="125.492" y2="16.8439" gradientUnits="userSpaceOnUse">
<stop stop-color="#64C2DB"/>
<stop offset="0.307" stop-color="#7476ED"/>
<stop offset="0.604" stop-color="#C994DF"/>
<stop offset="1" stop-color="#E56F8C"/>
</linearGradient>
</defs>
</svg>
