<svg width="181" height="34" viewBox="0 0 181 34" fill="none" xmlns="http://www.w3.org/2000/svg">
<path d="M71.7291 6.76953H67.937V23.8804H78.4348V20.5276H71.7291V6.76953Z" fill="#4575D2"/>
<path d="M78.7979 18.0762C78.7979 21.7296 81.2489 24.1575 84.9485 24.1575C88.625 24.1575 91.0761 21.7296 91.0761 18.0762C91.0761 14.4227 88.625 11.9717 84.9485 11.9717C81.2489 11.9717 78.7979 14.4227 78.7979 18.0762ZM82.3818 18.053C82.3818 16.3188 83.3993 15.1627 84.9485 15.1627C86.4746 15.1627 87.4921 16.3188 87.4921 18.053C87.4921 19.8104 86.4746 20.9665 84.9485 20.9665C83.3993 20.9665 82.3818 19.8104 82.3818 18.053Z" fill="#4575D2"/>
<path d="M91.6488 17.8915C91.6488 21.3829 93.9149 23.7415 97.1289 23.7415C98.6782 23.7415 100.019 23.1865 100.69 22.2848V23.8803C100.69 25.4757 99.6955 26.5393 97.9382 26.5393C96.3658 26.5393 95.279 25.7994 95.2097 24.4815H91.6025C91.9263 27.6493 94.3773 29.7765 97.7301 29.7765C101.684 29.7765 104.181 27.21 104.181 23.1403V12.3189H100.967L100.782 13.4981C100.135 12.5501 98.7706 11.9258 97.1983 11.9258C93.9611 11.9258 91.6488 14.3536 91.6488 17.8915ZM95.256 17.799C95.256 16.134 96.3658 15.0242 97.7764 15.0242C99.4181 15.0242 100.62 16.111 100.62 17.799C100.62 19.4869 99.4412 20.6431 97.7994 20.6431C96.389 20.6431 95.256 19.4869 95.256 17.799Z" fill="#4575D2"/>
<path d="M105.219 18.0762C105.219 21.7296 107.67 24.1575 111.37 24.1575C115.047 24.1575 117.498 21.7296 117.498 18.0762C117.498 14.4227 115.047 11.9717 111.37 11.9717C107.67 11.9717 105.219 14.4227 105.219 18.0762ZM108.803 18.053C108.803 16.3188 109.82 15.1627 111.37 15.1627C112.896 15.1627 113.913 16.3188 113.913 18.053C113.913 19.8104 112.896 20.9665 111.37 20.9665C109.82 20.9665 108.803 19.8104 108.803 18.053Z" fill="#4575D2"/>
<path d="M120.567 10.515C121.676 10.515 122.578 9.61321 122.578 8.48019C122.578 7.34717 121.676 6.46851 120.567 6.46851C119.434 6.46851 118.532 7.34717 118.532 8.48019C118.532 9.61321 119.434 10.515 120.567 10.515ZM118.763 23.88H122.348V12.3186H118.763V23.88Z" fill="#4575D2"/>
<path d="M124.435 29.4301H127.949V22.7245C128.619 23.6031 130.146 24.2043 131.741 24.2043C135.186 24.2043 137.267 21.5684 137.175 17.9149C137.082 14.1921 134.932 11.9492 131.718 11.9492C130.076 11.9492 128.527 12.666 127.879 13.7297L127.694 12.3192H124.435V29.4301ZM128.018 18.0999C128.018 16.3657 129.174 15.2096 130.839 15.2096C132.527 15.2096 133.591 16.3888 133.591 18.0999C133.591 19.811 132.527 20.9902 130.839 20.9902C129.174 20.9902 128.018 19.8341 128.018 18.0999Z" fill="#4575D2"/>
<path d="M137.554 20.2272C137.646 22.5626 139.496 24.1812 142.41 24.1812C145.208 24.1812 147.15 22.7013 147.15 20.3197C147.15 18.6086 146.133 17.4756 144.236 17.0131L142.179 16.5044C141.439 16.3195 140.976 16.1344 140.976 15.5332C140.976 14.932 141.461 14.5389 142.179 14.5389C142.988 14.5389 143.519 15.0708 143.497 15.8569H146.711C146.618 13.4522 144.792 11.9492 142.248 11.9492C139.682 11.9492 137.762 13.4753 137.762 15.7876C137.762 17.3368 138.618 18.6086 140.906 19.2098L142.941 19.7416C143.542 19.9034 143.796 20.1809 143.796 20.574C143.796 21.1521 143.265 21.5221 142.363 21.5221C141.322 21.5221 140.768 21.0365 140.768 20.2272H137.554Z" fill="#4575D2"/>
<path d="M152.6 24.1806C154.011 24.1806 155.422 23.5331 156.138 22.5851L156.37 23.88H159.723V12.3186H156.162V18.3306C156.162 20.0647 155.653 21.0127 154.011 21.0127C152.739 21.0127 151.907 20.4347 151.907 18.2843V12.3186H148.346V19.5791C148.346 22.3308 149.872 24.1806 152.6 24.1806Z" fill="#4575D2"/>
<path d="M165.37 23.8803V17.5678C165.37 15.6254 166.41 15.0704 167.428 15.0704C168.56 15.0704 169.3 15.7642 169.3 17.1978V23.8803H172.815V17.5678C172.815 15.6023 173.832 15.0474 174.85 15.0474C175.982 15.0474 176.746 15.741 176.746 17.1978V23.8803H180.215V16.3191C180.215 13.6831 178.827 11.9258 175.844 11.9258C174.18 11.9258 172.815 12.735 172.214 13.9837C171.52 12.735 170.318 11.9258 168.398 11.9258C167.127 11.9258 165.948 12.5038 165.254 13.4287L165.116 12.3189H161.785V23.8803H165.37Z" fill="#4575D2"/>
<path d="M0.185059 17.055C0.185059 7.70038 7.76849 0.116943 17.1231 0.116943H39.3544C48.709 0.116943 56.2924 7.70038 56.2924 17.055V33.9931H17.1231C7.76849 33.9931 0.185059 26.4097 0.185059 17.055Z" fill="#4575D2"/>
<path d="M39.3541 6.46851H17.1229C11.2763 6.46851 6.53662 11.2082 6.53662 17.0548C6.53662 22.9015 11.2763 27.6411 17.1229 27.6411H39.3541C45.2008 27.6411 49.9404 22.9015 49.9404 17.0548C49.9404 11.2082 45.2008 6.46851 39.3541 6.46851Z" fill="#A5B4FC"/>
<path d="M17.1232 22.348C20.0466 22.348 22.4164 19.9782 22.4164 17.0549C22.4164 14.1315 20.0466 11.7617 17.1232 11.7617C14.1999 11.7617 11.8301 14.1315 11.8301 17.0549C11.8301 19.9782 14.1999 22.348 17.1232 22.348Z" fill="black"/>
<path d="M15.0059 15.9964C15.5906 15.9964 16.0645 15.5224 16.0645 14.9378C16.0645 14.3531 15.5906 13.8792 15.0059 13.8792C14.4212 13.8792 13.9473 14.3531 13.9473 14.9378C13.9473 15.5224 14.4212 15.9964 15.0059 15.9964Z" fill="white"/>
<path d="M40.4128 22.348C43.3361 22.348 45.7059 19.9782 45.7059 17.0549C45.7059 14.1315 43.3361 11.7617 40.4128 11.7617C37.4895 11.7617 35.1196 14.1315 35.1196 17.0549C35.1196 19.9782 37.4895 22.348 40.4128 22.348Z" fill="black"/>
<path d="M38.2959 15.9964C38.8806 15.9964 39.3546 15.5224 39.3546 14.9378C39.3546 14.3531 38.8806 13.8792 38.2959 13.8792C37.7113 13.8792 37.2373 14.3531 37.2373 14.9378C37.2373 15.5224 37.7113 15.9964 38.2959 15.9964Z" fill="white"/>
</svg>
