<svg width="163" height="43" viewBox="0 0 163 43" fill="none" xmlns="http://www.w3.org/2000/svg">
<path d="M54.3028 10.8259H50.5317V27.8418H60.9712V24.5076H54.3028V10.8259Z" fill="#2CA277"/>
<path d="M61.3315 22.0703C61.3315 25.7034 63.769 28.1178 67.448 28.1178C71.1041 28.1178 73.5415 25.7034 73.5415 22.0703C73.5415 18.4372 71.1041 15.9998 67.448 15.9998C63.769 15.9998 61.3315 18.4372 61.3315 22.0703ZM64.8956 22.0473C64.8956 20.3228 65.9074 19.173 67.448 19.173C68.9656 19.173 69.9774 20.3228 69.9774 22.0473C69.9774 23.7949 68.9656 24.9446 67.448 24.9446C65.9074 24.9446 64.8956 23.7949 64.8956 22.0473Z" fill="#2CA277"/>
<path d="M74.1114 21.8866C74.1114 25.3587 76.3649 27.7041 79.5611 27.7041C81.1018 27.7041 82.4354 27.1523 83.1022 26.2555V27.8421C83.1022 29.4287 82.1135 30.4864 80.3659 30.4864C78.8023 30.4864 77.7215 29.7507 77.6525 28.44H74.0654C74.3874 31.5902 76.8248 33.7056 80.1589 33.7056C84.0909 33.7056 86.5744 31.1533 86.5744 27.1063V16.345H83.3781L83.1942 17.5176C82.5503 16.5749 81.1937 15.9541 79.6301 15.9541C76.4108 15.9541 74.1114 18.3685 74.1114 21.8866ZM77.6986 21.7946C77.6986 20.139 78.8023 19.0353 80.2049 19.0353C81.8375 19.0353 83.0332 20.116 83.0332 21.7946C83.0332 23.4732 81.8605 24.6229 80.2279 24.6229C78.8253 24.6229 77.6986 23.4732 77.6986 21.7946Z" fill="#2CA277"/>
<path d="M87.606 22.0703C87.606 25.7034 90.0434 28.1178 93.7225 28.1178C97.3786 28.1178 99.8159 25.7034 99.8159 22.0703C99.8159 18.4372 97.3786 15.9998 93.7225 15.9998C90.0434 15.9998 87.606 18.4372 87.606 22.0703ZM91.1701 22.0473C91.1701 20.3228 92.1818 19.173 93.7225 19.173C95.2401 19.173 96.2518 20.3228 96.2518 22.0473C96.2518 23.7949 95.2401 24.9446 93.7225 24.9446C92.1818 24.9446 91.1701 23.7949 91.1701 22.0473Z" fill="#2CA277"/>
<path d="M102.869 14.5516C103.973 14.5516 104.87 13.6548 104.87 12.5281C104.87 11.4014 103.973 10.5276 102.869 10.5276C101.742 10.5276 100.846 11.4014 100.846 12.5281C100.846 13.6548 101.742 14.5516 102.869 14.5516ZM101.076 27.8423H104.64V16.3452H101.076V27.8423Z" fill="#2CA277"/>
<path d="M106.715 33.361H110.21V26.6927C110.876 27.5664 112.394 28.1643 113.981 28.1643C117.407 28.1643 119.476 25.543 119.385 21.9098C119.292 18.2077 117.154 15.9773 113.958 15.9773C112.325 15.9773 110.785 16.6901 110.14 17.7479L109.956 16.3452H106.715V33.361ZM110.278 22.0937C110.278 20.3692 111.428 19.2195 113.084 19.2195C114.762 19.2195 115.82 20.3922 115.82 22.0937C115.82 23.7954 114.762 24.9681 113.084 24.9681C111.428 24.9681 110.278 23.8184 110.278 22.0937Z" fill="#2CA277"/>
<path d="M119.761 24.2092C119.852 26.5317 121.693 28.1412 124.59 28.1412C127.372 28.1412 129.304 26.6696 129.304 24.3012C129.304 22.5997 128.292 21.4729 126.406 21.013L124.36 20.5072C123.624 20.3232 123.164 20.1392 123.164 19.5414C123.164 18.9435 123.646 18.5526 124.36 18.5526C125.164 18.5526 125.693 19.0815 125.671 19.8633H128.867C128.774 17.4719 126.958 15.9773 124.429 15.9773C121.877 15.9773 119.968 17.4949 119.968 19.7943C119.968 21.3349 120.819 22.5997 123.095 23.1976L125.118 23.7263C125.716 23.8873 125.969 24.1632 125.969 24.5541C125.969 25.129 125.44 25.497 124.543 25.497C123.509 25.497 122.957 25.0141 122.957 24.2092H119.761Z" fill="#2CA277"/>
<path d="M134.724 28.1405C136.127 28.1405 137.53 27.4966 138.242 26.5539L138.473 27.8416H141.807V16.3445H138.266V22.323C138.266 24.0475 137.76 24.9903 136.127 24.9903C134.862 24.9903 134.035 24.4155 134.035 22.277V16.3445H130.493V23.5646C130.493 26.301 132.011 28.1405 134.724 28.1405Z" fill="#2CA277"/>
<path d="M147.423 27.8421V21.5647C147.423 19.6331 148.457 19.0813 149.469 19.0813C150.595 19.0813 151.331 19.7711 151.331 21.1968V27.8421H154.826V21.5647C154.826 19.6102 155.838 19.0583 156.85 19.0583C157.976 19.0583 158.735 19.7481 158.735 21.1968V27.8421H162.185V20.323C162.185 17.7017 160.805 15.9541 157.838 15.9541C156.183 15.9541 154.826 16.7588 154.229 18.0005C153.539 16.7588 152.343 15.9541 150.434 15.9541C149.17 15.9541 147.997 16.5289 147.308 17.4487L147.17 16.345H143.858V27.8421H147.423Z" fill="#2CA277"/>
<path d="M0 21.0549C0 11.1295 0 6.16684 3.08342 3.08342C6.16684 0 11.1295 0 21.0549 0C30.9803 0 35.9429 0 39.0264 3.08342C42.1098 6.16684 42.1098 11.1295 42.1098 21.0549C42.1098 30.9803 42.1098 35.9429 39.0264 39.0264C35.9429 42.1098 30.9803 42.1098 21.0549 42.1098C11.1295 42.1098 6.16684 42.1098 3.08342 39.0264C0 35.9429 0 30.9803 0 21.0549Z" fill="#2CA277"/>
<path d="M25.2654 27.3713C25.8469 27.3713 26.3288 27.8473 26.2133 28.4171C26.0092 29.4236 25.5133 30.3564 24.7764 31.0933C23.7894 32.0805 22.4505 32.6351 21.0544 32.6351C19.6584 32.6351 18.3196 32.0805 17.3325 31.0933C16.5955 30.3564 16.0997 29.4236 15.8957 28.4171C15.7801 27.8473 16.262 27.3713 16.8435 27.3713H25.2654Z" fill="#2DF8BB"/>
<path d="M27.4798 18.714C26.9181 18.8644 26.5742 19.452 26.859 19.9589C27.1587 20.4924 27.5733 20.958 28.0776 21.3194C28.8695 21.8869 29.8336 22.1623 30.8058 22.0985C31.7779 22.0348 32.6979 21.636 33.4089 20.97C34.1201 20.3041 34.5781 19.4121 34.7053 18.4462C34.8325 17.4803 34.6209 16.5002 34.1064 15.6728C33.5919 14.8456 32.8065 14.2222 31.8839 13.909C30.9614 13.5959 29.9589 13.6123 29.0471 13.9555C28.4664 14.174 27.9455 14.5165 27.5179 14.9542C27.1116 15.3701 27.2918 16.0267 27.7953 16.3174L28.3293 16.6258C29.1415 17.0948 28.9814 18.3116 28.0754 18.5544L27.4798 18.714Z" fill="#2DF8BB"/>
<path d="M14.6307 18.714C15.1923 18.8644 15.5363 19.452 15.2515 19.9589C14.9518 20.4924 14.5372 20.958 14.033 21.3194C13.2411 21.8869 12.2769 22.1623 11.3048 22.0985C10.3326 22.0348 9.41259 21.636 8.70154 20.97C7.99048 20.3041 7.53234 19.4121 7.40517 18.4462C7.27801 17.4803 7.48969 16.5002 8.00415 15.6728C8.51861 14.8456 9.30402 14.2222 10.2266 13.909C11.1491 13.5959 12.1517 13.6123 13.0635 13.9555C13.6441 14.174 14.1651 14.5165 14.5927 14.9542C14.999 15.3701 14.8187 16.0267 14.3152 16.3174L13.7811 16.6258C12.9689 17.0948 13.1292 18.3116 14.0351 18.5544L14.6307 18.714Z" fill="#2DF8BB"/>
</svg>
