<svg width="173" height="41" viewBox="0 0 173 41" fill="none" xmlns="http://www.w3.org/2000/svg">
<g clip-path="url(#clip0_307_776)">
<path d="M49.9971 29.0548H61.3498V25.8221H53.4589V10.7275H49.9971V29.0548Z" fill="#23216E"/>
<path d="M68.1718 29.4368C69.5464 29.4368 70.7555 29.1313 71.7991 28.5204C72.8512 27.901 73.67 27.0483 74.2555 25.9623C74.8494 24.8677 75.1464 23.6077 75.1464 22.1823C75.1464 20.7653 74.8536 19.5138 74.2682 18.4277C73.6827 17.3332 72.8639 16.4762 71.8118 15.8568C70.7682 15.2374 69.5549 14.9277 68.1718 14.9277C66.8142 14.9277 65.6136 15.2332 64.57 15.8441C63.5264 16.455 62.7076 17.3077 62.1136 18.4023C61.5197 19.4883 61.2227 20.7483 61.2227 22.1823C61.2227 23.5992 61.5112 24.855 62.0882 25.9495C62.6736 27.0356 63.4882 27.8883 64.5318 28.5077C65.5755 29.1271 66.7888 29.4368 68.1718 29.4368ZM68.1718 26.2041C67.0942 26.2041 66.2755 25.8435 65.7155 25.1223C65.1639 24.3926 64.8882 23.4126 64.8882 22.1823C64.8882 20.9859 65.1512 20.0186 65.6773 19.2804C66.2118 18.5338 67.0433 18.1604 68.1718 18.1604C69.2664 18.1604 70.0894 18.5253 70.6409 19.255C71.2009 19.9847 71.4809 20.9604 71.4809 22.1823C71.4809 23.3617 71.2052 24.3289 70.6536 25.0841C70.1106 25.8307 69.2833 26.2041 68.1718 26.2041Z" fill="#23216E"/>
<path d="M81.9924 29.4368C82.6373 29.4368 83.2312 29.3604 83.7743 29.2077C84.3258 29.055 84.8264 28.8386 85.2761 28.5586V29.9459C85.2931 30.455 85.1615 30.8792 84.8815 31.2186C84.61 31.5665 84.2452 31.8253 83.787 31.995C83.3288 32.1732 82.8409 32.2623 82.3234 32.2623C81.8397 32.2623 81.39 32.1562 80.9743 31.9441C80.567 31.732 80.253 31.4223 80.0324 31.015L76.8252 32.5677C77.3512 33.4586 78.1021 34.1756 79.0779 34.7186C80.0537 35.2701 81.127 35.5459 82.2979 35.5459C83.3076 35.5459 84.2452 35.4101 85.1106 35.1386C85.9761 34.8756 86.7058 34.4726 87.2997 33.9295C87.9021 33.3865 88.3137 32.695 88.5343 31.855C88.6106 31.558 88.6615 31.2568 88.687 30.9513C88.7209 30.6544 88.7379 30.3362 88.7379 29.9968V15.3095H85.7088V16.0732C85.2421 15.7083 84.7118 15.4283 84.1179 15.2332C83.5324 15.0295 82.8834 14.9277 82.1706 14.9277C80.8555 14.9277 79.71 15.2417 78.7343 15.8695C77.7585 16.4974 76.9991 17.3586 76.4561 18.4532C75.9215 19.5392 75.6543 20.7823 75.6543 22.1823C75.6543 23.5568 75.9173 24.7913 76.4434 25.8859C76.9779 26.9804 77.7203 27.8459 78.6706 28.4823C79.6209 29.1186 80.7282 29.4368 81.9924 29.4368ZM82.5524 26.3568C81.8058 26.3568 81.1949 26.1701 80.7197 25.7968C80.2446 25.4235 79.8924 24.9229 79.6634 24.295C79.4343 23.6586 79.3197 22.9544 79.3197 22.1823C79.3197 21.4186 79.4385 20.7229 79.6761 20.095C79.9137 19.4586 80.2785 18.9538 80.7706 18.5804C81.2712 18.1986 81.9076 18.0077 82.6797 18.0077C83.7658 18.0077 84.5421 18.3938 85.0088 19.1659C85.4755 19.9295 85.7088 20.935 85.7088 22.1823C85.7088 23.4295 85.4712 24.4392 84.9961 25.2113C84.5294 25.975 83.7149 26.3568 82.5524 26.3568Z" fill="#23216E"/>
<path d="M96.9603 29.4368C98.3349 29.4368 99.544 29.1313 100.588 28.5204C101.64 27.901 102.459 27.0483 103.044 25.9623C103.638 24.8677 103.935 23.6077 103.935 22.1823C103.935 20.7653 103.643 19.5138 103.057 18.4277C102.472 17.3332 101.653 16.4762 100.6 15.8568C99.5567 15.2374 98.3433 14.9277 96.9603 14.9277C95.6027 14.9277 94.4021 15.2332 93.3585 15.8441C92.3149 16.455 91.4961 17.3077 90.9021 18.4023C90.3082 19.4883 90.0112 20.7483 90.0112 22.1823C90.0112 23.5992 90.2997 24.855 90.8767 25.9495C91.4621 27.0356 92.2767 27.8883 93.3203 28.5077C94.364 29.1271 95.5773 29.4368 96.9603 29.4368ZM96.9603 26.2041C95.8827 26.2041 95.0639 25.8435 94.5039 25.1223C93.9524 24.3926 93.6767 23.4126 93.6767 22.1823C93.6767 20.9859 93.9397 20.0186 94.4658 19.2804C95.0003 18.5338 95.8318 18.1604 96.9603 18.1604C98.0549 18.1604 98.8779 18.5253 99.4294 19.255C99.9894 19.9847 100.269 20.9604 100.269 22.1823C100.269 23.3617 99.9936 24.3289 99.4421 25.0841C98.8991 25.8307 98.0718 26.2041 96.9603 26.2041Z" fill="#23216E"/>
<path d="M105.46 13.4004H108.922V10.3459H105.46V13.4004ZM105.46 29.055H108.922V15.3095H105.46V29.055Z" fill="#23216E"/>
<path d="M111.186 35.1641H114.673V28.5586C115.123 28.8386 115.619 29.055 116.162 29.2077C116.714 29.3604 117.312 29.4368 117.957 29.4368C119.221 29.4368 120.329 29.1186 121.279 28.4823C122.229 27.8459 122.967 26.9804 123.493 25.8859C124.028 24.7913 124.295 23.5568 124.295 22.1823C124.295 20.7823 124.024 19.5392 123.481 18.4532C122.946 17.3586 122.191 16.4974 121.215 15.8695C120.239 15.2417 119.094 14.9277 117.779 14.9277C117.066 14.9277 116.413 15.0295 115.819 15.2332C115.233 15.4283 114.707 15.7083 114.241 16.0732V15.3095H111.186V35.1641ZM117.397 26.3568C116.243 26.3568 115.429 25.975 114.953 25.2113C114.478 24.4392 114.241 23.4295 114.241 22.1823C114.241 20.935 114.474 19.9295 114.941 19.1659C115.416 18.3938 116.192 18.0077 117.27 18.0077C118.042 18.0077 118.674 18.1986 119.166 18.5804C119.667 18.9538 120.036 19.4586 120.273 20.095C120.511 20.7229 120.63 21.4186 120.63 22.1823C120.63 22.9544 120.515 23.6586 120.286 24.295C120.057 24.9229 119.705 25.4235 119.23 25.7968C118.755 26.1701 118.144 26.3568 117.397 26.3568Z" fill="#23216E"/>
<path d="M130.567 29.4368C132.365 29.4368 133.774 29.0338 134.792 28.2277C135.81 27.4216 136.319 26.3144 136.319 24.9059C136.319 23.8368 135.988 22.9926 135.327 22.3732C134.673 21.7538 133.562 21.2404 131.992 20.8332C130.923 20.5616 130.125 20.341 129.599 20.1713C129.082 20.0017 128.738 19.8362 128.568 19.675C128.407 19.5138 128.327 19.3144 128.327 19.0768C128.327 18.678 128.517 18.3726 128.899 18.1604C129.29 17.9483 129.803 17.8635 130.439 17.9059C131.788 18.0077 132.527 18.5847 132.654 19.6368L136.192 19.0004C136.014 17.7532 135.403 16.7647 134.359 16.035C133.316 15.2968 131.984 14.9277 130.363 14.9277C128.7 14.9277 127.372 15.318 126.379 16.0986C125.387 16.8792 124.89 17.9313 124.89 19.255C124.89 20.3071 125.234 21.1386 125.921 21.7495C126.608 22.352 127.792 22.8695 129.472 23.3023C130.465 23.5653 131.194 23.7774 131.661 23.9386C132.136 24.0998 132.442 24.2653 132.577 24.435C132.713 24.5962 132.781 24.8126 132.781 25.0841C132.781 25.5168 132.611 25.8562 132.272 26.1023C131.933 26.3398 131.449 26.4586 130.821 26.4586C130.057 26.4586 129.425 26.2762 128.925 25.9113C128.433 25.5465 128.114 25.0417 127.97 24.3968L124.432 24.9313C124.661 26.3653 125.306 27.4768 126.367 28.2659C127.436 29.0465 128.836 29.4368 130.567 29.4368Z" fill="#23216E"/>
<path d="M142.704 29.4621C143.697 29.4621 144.562 29.2966 145.301 28.9657C146.039 28.6348 146.658 28.1936 147.16 27.6421V29.0548H150.214V15.3093H146.727V22.2839C146.727 23.1324 146.629 23.8196 146.434 24.3457C146.248 24.8633 146.005 25.2578 145.708 25.5293C145.411 25.7924 145.093 25.9705 144.753 26.0639C144.414 26.1572 144.096 26.2039 143.799 26.2039C143.061 26.2039 142.488 26.0384 142.081 25.7075C141.682 25.3766 141.393 24.9651 141.215 24.473C141.037 23.9808 140.931 23.493 140.897 23.0093C140.863 22.5172 140.846 22.1142 140.846 21.8002V15.3093H137.333V23.0221C137.333 23.2511 137.35 23.616 137.384 24.1166C137.418 24.6172 137.516 25.173 137.677 25.7839C137.838 26.3863 138.105 26.9675 138.479 27.5275C138.861 28.0875 139.391 28.5499 140.07 28.9148C140.748 29.2796 141.627 29.4621 142.704 29.4621Z" fill="#23216E"/>
<path d="M152.218 29.0549H155.705V20.7312C155.705 19.9422 155.921 19.3016 156.354 18.8094C156.795 18.3088 157.376 18.0585 158.098 18.0585C158.853 18.0585 159.443 18.3131 159.867 18.8222C160.299 19.3228 160.516 20.027 160.516 20.9349V29.0549H163.978V20.7312C163.978 19.9422 164.194 19.3016 164.627 18.8094C165.068 18.3088 165.649 18.0585 166.37 18.0585C167.126 18.0585 167.715 18.3131 168.139 18.8222C168.572 19.3228 168.789 20.027 168.789 20.9349V29.0549H172.25V20.0185C172.25 18.5167 171.847 17.3034 171.041 16.3785C170.244 15.4452 169.06 14.9785 167.49 14.9785C166.608 14.9785 165.798 15.1694 165.059 15.5512C164.321 15.9331 163.732 16.4549 163.29 17.1167C162.934 16.4719 162.425 15.9543 161.763 15.564C161.101 15.1737 160.278 14.9785 159.294 14.9785C158.462 14.9785 157.699 15.144 157.003 15.4749C156.307 15.7973 155.73 16.2428 155.272 16.8112V15.3094H152.218V29.0549Z" fill="#23216E"/>
<path d="M20.9604 0.0549316C9.91475 0.0549316 0.960449 9.00923 0.960449 20.0549C12.0061 20.0549 20.9604 11.1006 20.9604 0.0549316Z" fill="#45D2B0"/>
<path d="M20.9604 40.0549C32.0061 40.0549 40.9604 31.1006 40.9604 20.0549C29.9147 20.0549 20.9604 29.0092 20.9604 40.0549Z" fill="#45D2B0"/>
<path d="M20.9604 0.0549316C32.0061 0.0549316 40.9604 9.00923 40.9604 20.0549C29.9147 20.0549 20.9604 11.1006 20.9604 0.0549316Z" fill="#23216E"/>
<path d="M20.9604 40.0549C9.91475 40.0549 0.960448 31.1006 0.960449 20.0549C12.0061 20.0549 20.9604 29.0092 20.9604 40.0549Z" fill="#23216E"/>
</g>
<defs>
<clipPath id="clip0_307_776">
<rect width="172" height="40" fill="white" transform="translate(0.960449 0.0549316)"/>
</clipPath>
</defs>
</svg>
