<svg width="165" height="53" viewBox="0 0 165 53" fill="none" xmlns="http://www.w3.org/2000/svg">
<path d="M7.65739 39.7695C9.15704 41.1135 11.6971 42.1876 15.6201 41.264C16.7254 41.0045 17.3221 39.798 16.8836 38.7498C16.8758 38.7317 16.8681 38.7161 16.8629 38.6979C16.4763 37.7795 15.4177 37.2995 14.4992 37.6835C8.77824 40.0731 3.78372 31.4228 8.71337 27.6633C9.50731 27.0588 9.61887 25.9042 9.01693 25.1103C9.00656 25.0947 8.99358 25.0817 8.98321 25.0662C8.29046 24.1555 6.94389 24.0854 6.16033 24.9157C3.55021 27.6841 3.03908 30.302 3.4101 32.1882C4.70998 38.6071 -0.743777 37.8962 0.0864799 39.3336C0.888197 40.7269 3.19735 35.7946 7.65739 39.7695ZM8.3216 32.4321C8.44094 33.6749 9.15704 34.9151 10.1741 35.639C12.0318 36.957 14.5952 36.5133 15.8899 34.6582C17.8825 31.7938 15.5085 27.6789 12.0318 27.9747C9.77714 28.1667 8.10884 30.1671 8.3216 32.4321Z" fill="#FF6A58"/>
<path d="M3.5657 19.8484C3.15316 21.8177 3.49305 24.5549 6.25366 27.4919C7.03202 28.317 8.37341 28.2314 9.06096 27.3259C9.07134 27.3103 9.08172 27.2973 9.09469 27.2818C9.69663 26.4853 9.58247 25.3307 8.79113 24.7261C3.85888 20.9666 8.85599 12.3138 14.577 14.706C15.4981 15.09 16.554 14.61 16.9406 13.6915C16.9484 13.6733 16.9562 13.6578 16.9614 13.6396C17.4025 12.5862 16.7927 11.3824 15.6797 11.1203C11.9772 10.2433 9.45534 11.1099 8.00758 12.3735C3.09608 16.7116 0.984118 11.634 0.156455 13.0714C-0.647857 14.4621 4.77736 13.9951 3.5657 19.8484ZM10.2519 16.7531C9.2348 17.477 8.5187 18.7172 8.39935 19.96C8.1866 22.2276 9.8523 24.2254 12.107 24.42C15.5837 24.7132 17.9577 20.6008 15.9651 17.7364C14.673 15.8787 12.1096 15.435 10.2519 16.7531Z" fill="#22B0FC"/>
<path d="M18.7724 6.34109C16.8602 6.96897 14.66 8.63208 13.4977 12.4902C13.1708 13.5773 13.918 14.6981 15.044 14.8408C15.0622 14.8434 15.0804 14.846 15.0985 14.8486C16.087 14.9732 17.0315 14.296 17.1586 13.3075C17.9473 7.15837 27.939 7.15837 28.7277 13.3075C28.8548 14.296 29.7993 14.9732 30.7878 14.8486C30.806 14.846 30.8241 14.8434 30.8423 14.8408C31.9761 14.6956 32.7129 13.5643 32.3834 12.4694C31.2911 8.82408 29.2804 7.07275 27.4616 6.45006C21.2528 4.36663 24.5946 0 22.9367 0C21.328 0 24.4441 4.46523 18.7724 6.34109ZM24.7944 10.5832C23.6606 10.0643 22.2258 10.0643 21.0919 10.5832C19.0215 11.5328 18.1238 13.9769 19.0838 16.024C20.5678 19.1815 25.3185 19.1815 26.8026 16.024C27.7625 13.9769 26.8622 11.5354 24.7944 10.5832Z" fill="#FCBF5B"/>
<path d="M38.0733 12.7576C36.5737 11.4136 34.0336 10.3395 30.1106 11.2632C29.0053 11.5226 28.4112 12.7291 28.8497 13.7773C28.8575 13.7954 28.8626 13.811 28.8704 13.8266C29.257 14.745 30.3156 15.225 31.2341 14.841C36.9551 12.4489 41.9496 21.1017 37.0199 24.8612C36.226 25.4657 36.1144 26.6203 36.7164 27.4168C36.7267 27.4324 36.7397 27.448 36.7501 27.461C37.4428 28.3716 38.7894 28.4417 39.573 27.6114C42.1831 24.843 42.6942 22.2251 42.3232 20.3389C41.0233 13.92 46.4771 14.6283 45.6468 13.1935C44.8399 11.8002 42.5333 16.7325 38.0733 12.7576ZM37.4091 20.095C37.2898 18.8522 36.5737 17.612 35.5566 16.8881C33.6989 15.5701 31.1355 16.0138 29.8408 17.8715C27.8482 20.7359 30.2222 24.8482 33.6989 24.5551C35.9536 24.3605 37.6219 22.3627 37.4091 20.095Z" fill="#1BCEB3"/>
<path d="M42.1649 32.6786C42.5774 30.7067 42.2376 27.9721 39.477 25.035C38.6986 24.2074 37.3572 24.2956 36.6696 25.1985C36.6593 25.214 36.6489 25.227 36.6359 25.2426C36.034 26.0391 36.1481 27.1937 36.9395 27.7982C41.8717 31.5577 36.8772 40.2106 31.1562 37.8184C30.2352 37.4318 29.1792 37.9118 28.7926 38.8329C28.7848 38.8484 28.777 38.8666 28.7718 38.8847C28.3308 39.9381 28.9405 41.142 30.0535 41.4041C33.756 42.2784 36.2779 41.4144 37.7256 40.1509C42.6345 35.8154 44.7465 40.8929 45.5768 39.4556C46.3785 38.0649 40.9533 38.5319 42.1649 32.6786ZM35.4787 35.7739C36.4958 35.05 37.2119 33.8072 37.3313 32.567C37.544 30.2994 35.8783 28.299 33.6236 28.107C30.1469 27.8138 27.7729 31.9287 29.7655 34.7931C31.0576 36.6456 33.621 37.0893 35.4787 35.7739Z" fill="#B9D432"/>
<path d="M26.9581 46.1858C28.8703 45.5579 31.0705 43.8948 32.2329 40.0367C32.5598 38.9496 31.8125 37.8314 30.6865 37.6861C30.6683 37.6835 30.6502 37.6809 30.632 37.6783C29.6435 37.5537 28.6991 38.2309 28.5719 39.2194C27.7832 45.3711 17.7916 45.3711 17.0028 39.2194C16.8757 38.2309 15.9313 37.5537 14.9427 37.6783C14.9246 37.6809 14.9064 37.6835 14.8883 37.6861C13.7544 37.8314 13.0176 38.9626 13.3471 40.0575C14.4394 43.7002 16.4502 45.4542 18.269 46.0743C24.4803 48.1603 21.1385 52.5243 22.7965 52.5243C24.4025 52.5269 21.2864 48.0617 26.9581 46.1858ZM20.9362 41.9437C22.07 42.4626 23.5048 42.4626 24.6386 41.9437C26.7091 40.9941 27.6068 38.55 26.6468 36.5029C25.1627 33.3454 20.4121 33.3454 18.928 36.5029C17.968 38.55 18.8657 40.9941 20.9362 41.9437Z" fill="#FCBF5B"/>
<path d="M57.672 18.6H60.884V34H57.672V18.6ZM62.908 34H59.696V31.14H62.798C63.4727 31.14 64.1107 31.052 64.712 30.876C65.3133 30.6853 65.8413 30.392 66.296 29.996C66.7507 29.6 67.1027 29.1013 67.352 28.5C67.616 27.884 67.748 27.1507 67.748 26.3C67.748 25.4493 67.616 24.7233 67.352 24.122C67.1027 23.506 66.7507 23 66.296 22.604C65.8413 22.208 65.3133 21.922 64.712 21.746C64.1107 21.5553 63.4727 21.46 62.798 21.46H59.696V18.6H62.908C64.5213 18.6 65.9293 18.9153 67.132 19.546C68.3493 20.1767 69.2953 21.0713 69.97 22.23C70.6447 23.374 70.982 24.7307 70.982 26.3C70.982 27.8693 70.6447 29.2333 69.97 30.392C69.2953 31.536 68.3493 32.4233 67.132 33.054C65.9293 33.6847 64.5213 34 62.908 34ZM77.93 34.22C76.83 34.22 75.8694 34 75.048 33.56C74.2267 33.12 73.5887 32.5113 73.134 31.734C72.694 30.942 72.474 30.0107 72.474 28.94C72.474 27.8547 72.694 26.9233 73.134 26.146C73.5887 25.354 74.2267 24.7453 75.048 24.32C75.8694 23.88 76.8374 23.66 77.952 23.66C79.0667 23.66 80.0127 23.8653 80.79 24.276C81.582 24.672 82.1834 25.2587 82.594 26.036C83.0047 26.7987 83.21 27.7227 83.21 28.808C83.21 28.94 83.2027 29.0793 83.188 29.226C83.188 29.3727 83.1807 29.49 83.166 29.578H74.102V27.818H80.68L79.91 28.83C79.9687 28.742 80.02 28.6247 80.064 28.478C80.1227 28.3167 80.152 28.1847 80.152 28.082C80.152 27.5833 80.0567 27.158 79.866 26.806C79.69 26.454 79.4334 26.1753 79.096 25.97C78.7587 25.7647 78.3627 25.662 77.908 25.662C77.3507 25.662 76.8814 25.7867 76.5 26.036C76.1334 26.2707 75.8474 26.63 75.642 27.114C75.4514 27.5833 75.3487 28.17 75.334 28.874C75.334 29.5487 75.4294 30.1207 75.62 30.59C75.8254 31.0593 76.126 31.4187 76.522 31.668C76.918 31.9173 77.3947 32.042 77.952 32.042C78.5827 32.042 79.118 31.9247 79.558 31.69C80.0127 31.4407 80.3867 31.074 80.68 30.59L83.166 31.36C82.638 32.3133 81.934 33.032 81.054 33.516C80.1887 33.9853 79.1474 34.22 77.93 34.22ZM85.8652 30.502C86.2905 30.898 86.6865 31.2207 87.0532 31.47C87.4198 31.7047 87.7645 31.8807 88.0872 31.998C88.4245 32.1153 88.7398 32.174 89.0332 32.174C89.4145 32.174 89.7078 32.0933 89.9132 31.932C90.1185 31.756 90.2212 31.5213 90.2212 31.228C90.2212 30.964 90.1332 30.744 89.9572 30.568C89.7958 30.3773 89.5538 30.2087 89.2312 30.062C88.9085 29.9153 88.4978 29.7613 87.9992 29.6C87.5298 29.424 87.0752 29.2187 86.6352 28.984C86.1952 28.7347 85.8285 28.412 85.5352 28.016C85.2565 27.6053 85.1172 27.0847 85.1172 26.454C85.1172 25.8527 85.2785 25.3467 85.6012 24.936C85.9238 24.5107 86.3565 24.1953 86.8992 23.99C87.4565 23.77 88.0725 23.66 88.7472 23.66C89.3192 23.66 89.8545 23.7333 90.3532 23.88C90.8518 24.0267 91.3138 24.2247 91.7392 24.474C92.1645 24.7087 92.5385 24.9873 92.8612 25.31L91.6072 27.07C91.2405 26.674 90.8005 26.3513 90.2872 26.102C89.7885 25.8527 89.2972 25.728 88.8132 25.728C88.4905 25.728 88.2338 25.794 88.0432 25.926C87.8672 26.0433 87.7792 26.2267 87.7792 26.476C87.7792 26.696 87.8672 26.894 88.0432 27.07C88.2338 27.2313 88.4978 27.378 88.8352 27.51C89.1872 27.642 89.5832 27.8033 90.0232 27.994C90.5658 28.1993 91.0645 28.434 91.5192 28.698C91.9885 28.9473 92.3625 29.2627 92.6412 29.644C92.9198 30.0253 93.0592 30.524 93.0592 31.14C93.0592 32.152 92.7292 32.944 92.0692 33.516C91.4092 34.0733 90.4998 34.352 89.3412 34.352C88.6225 34.352 87.9625 34.2567 87.3612 34.066C86.7745 33.8753 86.2392 33.626 85.7552 33.318C85.2858 32.9953 84.8605 32.6507 84.4792 32.284L85.8652 30.502ZM94.9611 16.84H97.7111V34H94.9611V16.84ZM101.429 23.88H104.839L100.483 28.06L105.279 34H101.891L97.0731 28.06L101.429 23.88Z" fill="#1B1117"/>
<path d="M110.431 25.354L109.441 34H106.163L108.451 17.83L114.897 27.774L121.343 17.83L123.631 34H120.353L119.363 25.354L114.897 32.57L110.431 25.354ZM127.86 30.854C127.86 31.1473 127.933 31.404 128.08 31.624C128.226 31.8293 128.424 31.9907 128.674 32.108C128.938 32.2107 129.224 32.262 129.532 32.262C129.972 32.262 130.368 32.174 130.72 31.998C131.072 31.8073 131.358 31.5433 131.578 31.206C131.798 30.854 131.908 30.436 131.908 29.952L132.26 31.272C132.26 31.9173 132.076 32.46 131.71 32.9C131.358 33.34 130.896 33.67 130.324 33.89C129.766 34.11 129.18 34.22 128.564 34.22C127.933 34.22 127.346 34.0953 126.804 33.846C126.261 33.5967 125.821 33.2373 125.484 32.768C125.161 32.284 125 31.6973 125 31.008C125 30.0253 125.344 29.248 126.034 28.676C126.723 28.104 127.698 27.818 128.96 27.818C129.605 27.818 130.17 27.884 130.654 28.016C131.152 28.148 131.57 28.3093 131.908 28.5C132.245 28.6907 132.487 28.874 132.634 29.05V30.37C132.238 30.0767 131.79 29.8567 131.292 29.71C130.808 29.5633 130.294 29.49 129.752 29.49C129.312 29.49 128.952 29.5487 128.674 29.666C128.395 29.7687 128.19 29.9227 128.058 30.128C127.926 30.3187 127.86 30.5607 127.86 30.854ZM126.76 26.74L125.704 24.804C126.232 24.5253 126.877 24.2613 127.64 24.012C128.402 23.748 129.253 23.616 130.192 23.616C131.057 23.616 131.827 23.7407 132.502 23.99C133.176 24.2393 133.704 24.606 134.086 25.09C134.467 25.5593 134.658 26.1387 134.658 26.828V34H131.908V27.422C131.908 27.1433 131.864 26.9087 131.776 26.718C131.688 26.5127 131.548 26.344 131.358 26.212C131.182 26.08 130.969 25.9847 130.72 25.926C130.47 25.8673 130.192 25.838 129.884 25.838C129.414 25.838 128.967 25.8893 128.542 25.992C128.116 26.0947 127.75 26.2193 127.442 26.366C127.134 26.5127 126.906 26.6373 126.76 26.74ZM136.01 23.88H142.258V26.278H136.01V23.88ZM137.748 20.36H140.498V34H137.748V20.36ZM148.549 34.22C147.449 34.22 146.489 34 145.667 33.56C144.846 33.12 144.208 32.5113 143.753 31.734C143.313 30.942 143.093 30.0107 143.093 28.94C143.093 27.8547 143.313 26.9233 143.753 26.146C144.208 25.354 144.846 24.7453 145.667 24.32C146.489 23.88 147.457 23.66 148.571 23.66C149.686 23.66 150.632 23.8653 151.409 24.276C152.201 24.672 152.803 25.2587 153.213 26.036C153.624 26.7987 153.829 27.7227 153.829 28.808C153.829 28.94 153.822 29.0793 153.807 29.226C153.807 29.3727 153.8 29.49 153.785 29.578H144.721V27.818H151.299L150.529 28.83C150.588 28.742 150.639 28.6247 150.683 28.478C150.742 28.3167 150.771 28.1847 150.771 28.082C150.771 27.5833 150.676 27.158 150.485 26.806C150.309 26.454 150.053 26.1753 149.715 25.97C149.378 25.7647 148.982 25.662 148.527 25.662C147.97 25.662 147.501 25.7867 147.119 26.036C146.753 26.2707 146.467 26.63 146.261 27.114C146.071 27.5833 145.968 28.17 145.953 28.874C145.953 29.5487 146.049 30.1207 146.239 30.59C146.445 31.0593 146.745 31.4187 147.141 31.668C147.537 31.9173 148.014 32.042 148.571 32.042C149.202 32.042 149.737 31.9247 150.177 31.69C150.632 31.4407 151.006 31.074 151.299 30.59L153.785 31.36C153.257 32.3133 152.553 33.032 151.673 33.516C150.808 33.9853 149.767 34.22 148.549 34.22ZM156.484 30.502C156.91 30.898 157.306 31.2207 157.672 31.47C158.039 31.7047 158.384 31.8807 158.706 31.998C159.044 32.1153 159.359 32.174 159.652 32.174C160.034 32.174 160.327 32.0933 160.532 31.932C160.738 31.756 160.84 31.5213 160.84 31.228C160.84 30.964 160.752 30.744 160.576 30.568C160.415 30.3773 160.173 30.2087 159.85 30.062C159.528 29.9153 159.117 29.7613 158.618 29.6C158.149 29.424 157.694 29.2187 157.254 28.984C156.814 28.7347 156.448 28.412 156.154 28.016C155.876 27.6053 155.736 27.0847 155.736 26.454C155.736 25.8527 155.898 25.3467 156.22 24.936C156.543 24.5107 156.976 24.1953 157.518 23.99C158.076 23.77 158.692 23.66 159.366 23.66C159.938 23.66 160.474 23.7333 160.972 23.88C161.471 24.0267 161.933 24.2247 162.358 24.474C162.784 24.7087 163.158 24.9873 163.48 25.31L162.226 27.07C161.86 26.674 161.42 26.3513 160.906 26.102C160.408 25.8527 159.916 25.728 159.432 25.728C159.11 25.728 158.853 25.794 158.662 25.926C158.486 26.0433 158.398 26.2267 158.398 26.476C158.398 26.696 158.486 26.894 158.662 27.07C158.853 27.2313 159.117 27.378 159.454 27.51C159.806 27.642 160.202 27.8033 160.642 27.994C161.185 28.1993 161.684 28.434 162.138 28.698C162.608 28.9473 162.982 29.2627 163.26 29.644C163.539 30.0253 163.678 30.524 163.678 31.14C163.678 32.152 163.348 32.944 162.688 33.516C162.028 34.0733 161.119 34.352 159.96 34.352C159.242 34.352 158.582 34.2567 157.98 34.066C157.394 33.8753 156.858 33.626 156.374 33.318C155.905 32.9953 155.48 32.6507 155.098 32.284L156.484 30.502Z" fill="#FF6A58"/>
</svg>
