<svg width="169" height="42" viewBox="0 0 169 42" fill="none" xmlns="http://www.w3.org/2000/svg">
<g clip-path="url(#clip0_307_760)">
<path d="M50.2378 29.5074H62.1898V25.9074H54.4858V12.3474H50.2378V29.5074Z" fill="#3C2B1F"/>
<path d="M69.2712 27.1073C67.5672 27.1073 66.6792 25.6193 66.6792 23.3873C66.6792 21.1553 67.5672 19.6433 69.2712 19.6433C70.9752 19.6433 71.8872 21.1553 71.8872 23.3873C71.8872 25.6193 70.9752 27.1073 69.2712 27.1073ZM69.2952 29.8913C73.2552 29.8913 75.8472 27.0833 75.8472 23.3873C75.8472 19.6913 73.2552 16.8833 69.2952 16.8833C65.3592 16.8833 62.7192 19.6913 62.7192 23.3873C62.7192 27.0833 65.3592 29.8913 69.2952 29.8913Z" fill="#3C2B1F"/>
<path d="M82.7015 33.7554C84.5255 33.7554 86.1335 33.3474 87.2135 32.3874C88.1975 31.4994 88.8455 30.1554 88.8455 28.3074V17.2194H85.1015V18.5394H85.0535C84.3335 17.5074 83.2295 16.8594 81.5975 16.8594C78.5495 16.8594 76.4375 19.4034 76.4375 23.0034C76.4375 26.7714 79.0055 28.8354 81.7655 28.8354C83.2535 28.8354 84.1895 28.2354 84.9095 27.4194H85.0055V28.6434C85.0055 30.1314 84.3095 30.9954 82.6535 30.9954C81.3575 30.9954 80.7095 30.4434 80.4935 29.7954H76.7015C77.0855 32.3634 79.3175 33.7554 82.7015 33.7554ZM82.6775 25.9314C81.2135 25.9314 80.2535 24.7314 80.2535 22.8834C80.2535 21.0114 81.2135 19.8114 82.6775 19.8114C84.3095 19.8114 85.1735 21.2034 85.1735 22.8594C85.1735 24.5874 84.3815 25.9314 82.6775 25.9314Z" fill="#3C2B1F"/>
<path d="M96.5442 27.1073C94.8402 27.1073 93.9522 25.6193 93.9522 23.3873C93.9522 21.1553 94.8402 19.6433 96.5442 19.6433C98.2482 19.6433 99.1602 21.1553 99.1602 23.3873C99.1602 25.6193 98.2482 27.1073 96.5442 27.1073ZM96.5682 29.8913C100.528 29.8913 103.12 27.0833 103.12 23.3873C103.12 19.6913 100.528 16.8833 96.5682 16.8833C92.6322 16.8833 89.9922 19.6913 89.9922 23.3873C89.9922 27.0833 92.6322 29.8913 96.5682 29.8913Z" fill="#3C2B1F"/>
<path d="M104.263 29.5074H108.175V17.2194H104.263V29.5074ZM104.263 15.5154H108.175V12.3474H104.263V15.5154Z" fill="#3C2B1F"/>
<path d="M109.872 33.5634H113.784V28.2354H113.832C114.6 29.2674 115.728 29.8914 117.312 29.8914C120.528 29.8914 122.664 27.3474 122.664 23.3634C122.664 19.6674 120.672 16.8594 117.408 16.8594C115.728 16.8594 114.528 17.6034 113.688 18.7074H113.616V17.2194H109.872V33.5634ZM116.304 26.8674C114.624 26.8674 113.664 25.4994 113.664 23.5074C113.664 21.5154 114.528 20.0034 116.232 20.0034C117.912 20.0034 118.704 21.3954 118.704 23.5074C118.704 25.5954 117.792 26.8674 116.304 26.8674Z" fill="#3C2B1F"/>
<path d="M129.033 29.8914C132.249 29.8914 134.625 28.4994 134.625 25.8114C134.625 22.6674 132.081 22.1154 129.921 21.7554C128.361 21.4674 126.969 21.3474 126.969 20.4834C126.969 19.7154 127.713 19.3554 128.673 19.3554C129.753 19.3554 130.497 19.6914 130.641 20.7954H134.241C134.049 18.3714 132.177 16.8594 128.697 16.8594C125.793 16.8594 123.393 18.2034 123.393 20.7954C123.393 23.6754 125.673 24.2514 127.809 24.6114C129.441 24.8994 130.929 25.0194 130.929 26.1234C130.929 26.9154 130.185 27.3474 129.009 27.3474C127.713 27.3474 126.897 26.7474 126.753 25.5234H123.057C123.177 28.2354 125.433 29.8914 129.033 29.8914Z" fill="#3C2B1F"/>
<path d="M139.939 29.8672C141.643 29.8672 142.723 29.1952 143.611 27.9952H143.683V29.5072H147.427V17.2192H143.515V24.0832C143.515 25.5472 142.699 26.5552 141.355 26.5552C140.107 26.5552 139.507 25.8112 139.507 24.4672V17.2192H135.619V25.2832C135.619 28.0192 137.107 29.8672 139.939 29.8672Z" fill="#3C2B1F"/>
<path d="M149.128 29.5074H153.04V22.6194C153.04 21.1554 153.76 20.1234 154.984 20.1234C156.16 20.1234 156.712 20.8914 156.712 22.2114V29.5074H160.624V22.6194C160.624 21.1554 161.32 20.1234 162.568 20.1234C163.744 20.1234 164.296 20.8914 164.296 22.2114V29.5074H168.208V21.5154C168.208 18.7554 166.816 16.8594 164.032 16.8594C162.448 16.8594 161.128 17.5314 160.168 19.0194H160.12C159.496 17.6994 158.272 16.8594 156.664 16.8594C154.888 16.8594 153.712 17.6994 152.944 18.9714H152.872V17.2194H149.128V29.5074Z" fill="#3C2B1F"/>
<path d="M26.3703 2.53189L22.4373 1.47803L19.1229 13.8476L16.1306 2.68027L12.1975 3.73413L15.4305 15.7996L7.37791 7.74701L4.49872 10.6262L13.3314 19.459L2.33169 16.5116L1.27783 20.4446L13.2964 23.665C13.1588 23.0715 13.086 22.4531 13.086 21.8177C13.086 17.3201 16.732 13.6741 21.2296 13.6741C25.7272 13.6741 29.3732 17.3201 29.3732 21.8177C29.3732 22.449 29.3013 23.0636 29.1654 23.6536L40.0882 26.5803L41.1419 22.6473L29.0756 19.4141L40.076 16.4665L39.0221 12.5335L26.9562 15.7665L35.0089 7.71395L32.1297 4.83476L23.4194 13.545L26.3703 2.53189Z" fill="#F97316"/>
<path d="M29.1548 23.6992C28.8176 25.1248 28.1057 26.4055 27.1289 27.4316L35.0419 35.3447L37.9211 32.4655L29.1548 23.6992Z" fill="#F97316"/>
<path d="M27.0491 27.5146C26.0605 28.5243 24.8112 29.2778 23.4102 29.6661L26.2896 40.4121L30.2226 39.3582L27.0491 27.5146Z" fill="#F97316"/>
<path d="M23.2633 29.7052C22.6133 29.8723 21.932 29.9611 21.2299 29.9611C20.4777 29.9611 19.7493 29.8591 19.0578 29.6682L16.1758 40.424L20.1088 41.4778L23.2633 29.7052Z" fill="#F97316"/>
<path d="M18.9187 29.6286C17.5391 29.221 16.312 28.4579 15.3436 27.4453L7.41113 35.3778L10.2903 38.257L18.9187 29.6286Z" fill="#F97316"/>
<path d="M15.2772 27.3752C14.3254 26.3562 13.6321 25.0926 13.3021 23.689L2.34375 26.6253L3.3976 30.5583L15.2772 27.3752Z" fill="#F97316"/>
</g>
<defs>
<clipPath id="clip0_307_760">
<rect width="168" height="41" fill="white" transform="translate(0.960449 0.554932)"/>
</clipPath>
</defs>
</svg>
